G04 DipTrace 4.3.0.2*
G04 2 - Bottom.gbr*
%MOIN*%
G04 #@! TF.FileFunction,Copper,L2,Bot*
G04 #@! TF.Part,Single*
G04 #@! TA.AperFunction,Conductor*
%ADD13C,0.023622*%
G04 #@! TA.AperFunction,CopperBalancing*
%ADD14C,0.012992*%
%ADD15C,0.025*%
G04 #@! TA.AperFunction,ComponentPad*
%ADD16R,0.090551X0.090551*%
%ADD17C,0.090551*%
%ADD18C,0.062992*%
%ADD19R,0.062992X0.062992*%
%ADD20R,0.075591X0.075591*%
%ADD21C,0.075591*%
%ADD23C,0.050394*%
%ADD24C,0.05*%
%ADD25C,0.05*%
%ADD26R,0.066929X0.066929*%
%ADD27C,0.066929*%
%ADD28R,0.074803X0.074803*%
%ADD29C,0.074803*%
%ADD30C,0.048*%
%FSLAX26Y26*%
G04*
G70*
G90*
G75*
G01*
G04 Bottom*
%LPD*%
X943701Y2143701D2*
D13*
Y1893701D1*
X993701Y1843701D1*
X574803D1*
X543701Y1874803D1*
X1993701Y2043701D2*
X1942126D1*
X1642126Y1743701D1*
X2293701Y2243701D2*
X3138189D1*
X3393701Y2499213D1*
Y2543701D1*
X3343701Y2593701D1*
X3393701Y693694D2*
Y793701D1*
X3743701Y1143701D1*
Y2193701D1*
X3343701Y2593701D1*
X3393701Y693694D2*
Y643701D1*
X3493701Y543701D1*
X3693701D1*
X4293701Y1143701D1*
Y1743701D1*
X4193701Y1843701D1*
X4043701D1*
X3993701Y1793701D1*
Y1643701D1*
X4093701Y1543701D1*
X2293701Y2343701D2*
X2343701Y2393701D1*
X3093701D1*
X3243701Y2543701D1*
Y2593701D1*
X4093701Y1443701D2*
X3943701D1*
X3843701Y1543701D1*
Y2315945D1*
X3415945Y2743701D1*
X3321457D1*
X3243701Y2665945D1*
Y2593701D1*
X3493701Y693698D2*
Y743701D1*
X4093701Y1343701D1*
Y1443701D1*
X2243701Y2093701D2*
D14*
X2343701D1*
Y1993701D1*
X2993701Y1343701D1*
Y693680D1*
X2243701Y2293701D2*
X3093701D1*
X3293701Y2493701D1*
Y2643701D1*
X3343701Y2693701D1*
X3393701D1*
X3793701Y2293701D1*
Y1143701D1*
X3443701Y793701D1*
Y643701D1*
X3493701Y593701D1*
X3643701D1*
X4243701Y1193701D1*
Y1643701D1*
X4143701Y1743701D1*
X4093701D1*
X3593701Y693701D2*
D13*
X4193701Y1293702D1*
Y1493701D1*
Y1593701D1*
X4143701Y1643701D1*
X4093701D1*
X1543701Y2393701D2*
X1593706D1*
X1743701Y2543696D1*
X3043701Y2593701D2*
Y2643701D1*
X2343701D1*
X1843706D1*
X1835196Y2635190D1*
X1743701Y2543696D1*
X524803Y2393701D2*
Y2474803D1*
X793701Y2743701D1*
X1726685D1*
X1835196Y2635190D1*
X524803Y2393701D2*
Y2374803D1*
X443701Y2293701D1*
Y1793701D1*
X993701Y1243701D1*
Y693698D2*
Y943701D1*
Y1243701D1*
Y1543701D1*
X1143701Y2143701D2*
Y1943701D1*
X1193701Y1893701D1*
Y1743701D1*
X993701Y1543701D1*
X1643701Y693701D2*
Y743701D1*
X1543701Y843701D1*
X1393701D1*
X1143701Y593701D1*
X1043701D1*
X993701Y643701D1*
Y693698D1*
X2293701Y1543701D2*
X2243701D1*
X2122827Y1664575D1*
X2043701Y1743701D1*
X1993701D1*
X2122827Y1664575D2*
Y2422827D1*
X2343701Y2643701D1*
X3043701D2*
X3193701Y2793701D1*
X3493701D1*
X3943701Y2343701D1*
Y1593701D1*
X4043701Y1493701D1*
D14*
X4193701D1*
X915748Y2632283D2*
D13*
X1005118D1*
X1093701Y2543701D1*
X1293701D1*
X1343701Y2493701D1*
Y2293701D1*
X1393701Y2243701D1*
X1743701D1*
X2043701Y2543706D2*
Y2393701D1*
X1993701Y2343701D1*
X1743701Y2243701D2*
X1843701D1*
X1943701Y2343701D1*
X1993701D1*
X2293701Y1843701D2*
X2343701D1*
X2843701Y1343701D1*
Y893701D1*
X2593701Y643701D1*
X2043701D1*
X2033671Y653731D1*
X1943701Y743701D1*
X1543701Y693701D2*
Y643701D1*
X1593701Y593701D1*
X1973640D1*
X2033671Y653731D1*
X1743699Y1243701D2*
Y1393699D1*
X1893701Y1543701D1*
X1993701D1*
X1393701Y1288701D2*
X1698699D1*
X1743699Y1243701D1*
X1993701Y1443701D2*
X2043701D1*
X2143701Y1343701D1*
Y993701D1*
X2194056Y943345D1*
X2243701Y893701D1*
X2393701D1*
X2743701Y1243701D1*
X1393701Y1098701D2*
X1588701D1*
X1744056Y943345D1*
X2194056D1*
X434694Y2780348D2*
D15*
X782202D1*
X1738188D2*
X3124488D1*
X3562916D2*
X4352715D1*
X434694Y2755479D2*
X749619D1*
X1770770D2*
X3099604D1*
X3211341D2*
X3277373D1*
X3460035D2*
X3476064D1*
X3587783D2*
X4352715D1*
X434694Y2730610D2*
X724752D1*
X1795638D2*
X3074735D1*
X3186472D2*
X3252505D1*
X3484904D2*
X3500932D1*
X3612651D2*
X4352715D1*
X434694Y2705741D2*
X699866D1*
X811604D2*
X1708786D1*
X1820505D2*
X3049867D1*
X3161605D2*
X3227638D1*
X3339357D2*
X3398034D1*
X3509772D2*
X3525799D1*
X3637520D2*
X4352715D1*
X434694Y2680873D2*
X674999D1*
X786736D2*
X853864D1*
X977639D2*
X1134997D1*
X1208303D2*
X1733654D1*
X3136738D2*
X3206538D1*
X3314490D2*
X3422902D1*
X3534639D2*
X3550667D1*
X3662404D2*
X4352715D1*
X434694Y2656004D2*
X650130D1*
X761867D2*
X853864D1*
X1037261D2*
X1114705D1*
X1228596D2*
X1758521D1*
X3111870D2*
X3127844D1*
X3159559D2*
X3203470D1*
X3289622D2*
X3327844D1*
X3359560D2*
X3447769D1*
X3559507D2*
X3575535D1*
X3687273D2*
X4352715D1*
X434694Y2631135D2*
X625262D1*
X737000D2*
X853864D1*
X1062129D2*
X1109772D1*
X1233530D2*
X1775280D1*
X3397759D2*
X3472636D1*
X3584374D2*
X3600403D1*
X3712140D2*
X4352715D1*
X434694Y2606266D2*
X600395D1*
X712133D2*
X853864D1*
X1086997D2*
X1115764D1*
X1227537D2*
X1750412D1*
X3408668D2*
X3497505D1*
X3609243D2*
X3625270D1*
X3737008D2*
X4352715D1*
X434694Y2581398D2*
X575528D1*
X687265D2*
X853864D1*
X977639D2*
X1000144D1*
X1297924D2*
X1706974D1*
X1837264D2*
X2006948D1*
X2080450D2*
X2225535D1*
X2337273D2*
X2977490D1*
X3411879D2*
X3522373D1*
X3634110D2*
X3650138D1*
X3761875D2*
X4352715D1*
X434694Y2556529D2*
X550660D1*
X662398D2*
X1025013D1*
X1336732D2*
X1691920D1*
X1812395D2*
X1991912D1*
X2095486D2*
X2200668D1*
X2312388D2*
X2977490D1*
X3436747D2*
X3547259D1*
X3658978D2*
X3675007D1*
X3786744D2*
X4352715D1*
X434694Y2531660D2*
X525791D1*
X637529D2*
X1049881D1*
X1361601D2*
X1675790D1*
X1795692D2*
X1991715D1*
X2095684D2*
X2175801D1*
X2287520D2*
X2977490D1*
X3109913D2*
X3126660D1*
X3160744D2*
X3175785D1*
X3281961D2*
X3326660D1*
X3461615D2*
X3572126D1*
X3683845D2*
X3699874D1*
X3811612D2*
X4352715D1*
X434694Y2506791D2*
X500924D1*
X612661D2*
X883970D1*
X947514D2*
X1083343D1*
X1381588D2*
X1650923D1*
X1781302D2*
X2003467D1*
X2083932D2*
X2150933D1*
X2262652D2*
X3150917D1*
X3262655D2*
X3345409D1*
X3486483D2*
X3596993D1*
X3708714D2*
X3724741D1*
X3836479D2*
X4352715D1*
X434694Y2481923D2*
X485243D1*
X587794D2*
X860251D1*
X971252D2*
X1116159D1*
X1227143D2*
X1299617D1*
X1383938D2*
X1626055D1*
X1737793D2*
X2003467D1*
X2083932D2*
X2126047D1*
X2237785D2*
X3126050D1*
X3237787D2*
X3320542D1*
X3511350D2*
X3621861D1*
X3733598D2*
X3749609D1*
X3861346D2*
X4352715D1*
X434694Y2457054D2*
X484560D1*
X565043D2*
X588894D1*
X736301D2*
X853881D1*
X977604D2*
X1109789D1*
X1233512D2*
X1303455D1*
X1383938D2*
X1601188D1*
X1712925D2*
X2003467D1*
X2083932D2*
X2101180D1*
X2212917D2*
X3101182D1*
X3212920D2*
X3295675D1*
X3407412D2*
X3424480D1*
X3536218D2*
X3646730D1*
X3758467D2*
X3774476D1*
X3886214D2*
X4352715D1*
X434694Y2432185D2*
X462403D1*
X736301D2*
X858457D1*
X973029D2*
X1114365D1*
X1228937D2*
X1303455D1*
X1383938D2*
X1398585D1*
X1688056D2*
X2003467D1*
X2188049D2*
X3076314D1*
X3188051D2*
X3270807D1*
X3382545D2*
X3449348D1*
X3561085D2*
X3671597D1*
X3783335D2*
X3799345D1*
X3911083D2*
X4352715D1*
X434694Y2407316D2*
X452408D1*
X736301D2*
X878013D1*
X953490D2*
X1133903D1*
X1209398D2*
X1303455D1*
X1663189D2*
X2001457D1*
X2163181D2*
X2301449D1*
X3163184D2*
X3245938D1*
X3357676D2*
X3474217D1*
X3585954D2*
X3696465D1*
X3808202D2*
X3824213D1*
X3935950D2*
X4352715D1*
X434694Y2382448D2*
X451996D1*
X736301D2*
X1303455D1*
X1638322D2*
X1933780D1*
X2163056D2*
X2248825D1*
X3138316D2*
X3221071D1*
X3332808D2*
X3499084D1*
X3610822D2*
X3721332D1*
X3833070D2*
X3849080D1*
X3960818D2*
X4352715D1*
X434694Y2357579D2*
X451709D1*
X736301D2*
X1303455D1*
X1383938D2*
X1396558D1*
X1607121D2*
X1901717D1*
X2063441D2*
X2082592D1*
X2163056D2*
X2235476D1*
X3107115D2*
X3196203D1*
X3307941D2*
X3523951D1*
X3635689D2*
X3746201D1*
X3857938D2*
X3873948D1*
X3981290D2*
X4352715D1*
X564038Y2332710D2*
X588894D1*
X736301D2*
X1303455D1*
X1383938D2*
X1876849D1*
X2053627D2*
X2082592D1*
X2163056D2*
X2234848D1*
X2352560D2*
X3171336D1*
X3283073D2*
X3548819D1*
X3660556D2*
X3771068D1*
X3880007D2*
X3898816D1*
X3983945D2*
X4352715D1*
X513711Y2307841D2*
X1303455D1*
X1385428D2*
X1851982D1*
X2053627D2*
X2082592D1*
X2163056D2*
X2246349D1*
X2341042D2*
X3146467D1*
X3258205D2*
X3573686D1*
X3685424D2*
X3795936D1*
X3883936D2*
X3903463D1*
X3983945D2*
X4352715D1*
X488844Y2282972D2*
X1305017D1*
X1410295D2*
X1683774D1*
X1803622D2*
X1827114D1*
X1938833D2*
X1949318D1*
X2038089D2*
X2082592D1*
X2163056D2*
X2249310D1*
X2338098D2*
X3121600D1*
X3233320D2*
X3598555D1*
X3710293D2*
X3803471D1*
X3883936D2*
X3903463D1*
X3983945D2*
X4352715D1*
X483945Y2258104D2*
X1323425D1*
X1913966D2*
X1935610D1*
X2051780D2*
X2082592D1*
X2163056D2*
X2235619D1*
X3208451D2*
X3623423D1*
X3735160D2*
X3803471D1*
X3883936D2*
X3903463D1*
X3983945D2*
X4352715D1*
X483945Y2233235D2*
X1348293D1*
X1889098D2*
X1934748D1*
X2052659D2*
X2082592D1*
X2163056D2*
X2234740D1*
X3183584D2*
X3648308D1*
X3760028D2*
X3803471D1*
X3883936D2*
X3903463D1*
X3983945D2*
X4352715D1*
X483945Y2208366D2*
X1377951D1*
X1859440D2*
X1945945D1*
X2041462D2*
X2082592D1*
X2163056D2*
X2245936D1*
X3153944D2*
X3673176D1*
X3780966D2*
X3803471D1*
X3883936D2*
X3903463D1*
X3983945D2*
X4352715D1*
X483945Y2183497D2*
X877870D1*
X1195457D2*
X1699815D1*
X1787600D2*
X1949802D1*
X2037587D2*
X2082592D1*
X2163056D2*
X2249812D1*
X2337597D2*
X3698043D1*
X3783945D2*
X3803471D1*
X3883936D2*
X3903463D1*
X3983945D2*
X4352715D1*
X483945Y2158629D2*
X877870D1*
X1207747D2*
X1685748D1*
X1801648D2*
X1935753D1*
X2051654D2*
X2082592D1*
X2163056D2*
X2235745D1*
X2351646D2*
X3703462D1*
X3783945D2*
X3803471D1*
X3883936D2*
X3903463D1*
X3983945D2*
X4352715D1*
X483945Y2133760D2*
X877870D1*
X1208734D2*
X1684654D1*
X1802761D2*
X1934640D1*
X2052748D2*
X2082592D1*
X2163056D2*
X2234651D1*
X2352757D2*
X3703462D1*
X3783945D2*
X3803471D1*
X3883936D2*
X3903463D1*
X3983945D2*
X4352715D1*
X483945Y2108891D2*
X877870D1*
X1199098D2*
X1695526D1*
X1791870D2*
X1945531D1*
X2041875D2*
X2082592D1*
X2163056D2*
X2245542D1*
X2341866D2*
X3703462D1*
X3783945D2*
X3803471D1*
X3883936D2*
X3903463D1*
X3983945D2*
X4352715D1*
X483945Y2084022D2*
X877870D1*
X1009522D2*
X1020025D1*
X1067386D2*
X1103455D1*
X1183938D2*
X1950323D1*
X2037084D2*
X2082592D1*
X2163056D2*
X2250314D1*
X2337076D2*
X3703462D1*
X3783945D2*
X3803471D1*
X3883936D2*
X3903463D1*
X3983945D2*
X4352715D1*
X600067Y2059154D2*
X903472D1*
X983937D2*
X1103455D1*
X1183938D2*
X1901717D1*
X2051510D2*
X2082592D1*
X2163056D2*
X2235907D1*
X2351501D2*
X3703462D1*
X3783945D2*
X3803471D1*
X3883936D2*
X3903463D1*
X3983945D2*
X4352715D1*
X614025Y2034285D2*
X903472D1*
X983937D2*
X1103455D1*
X1183938D2*
X1876849D1*
X2052837D2*
X2082592D1*
X2163056D2*
X2234560D1*
X2352848D2*
X3703462D1*
X3783945D2*
X3803471D1*
X3883936D2*
X3903463D1*
X3983945D2*
X4352715D1*
X617327Y2009416D2*
X903472D1*
X983937D2*
X1103455D1*
X1183938D2*
X1851982D1*
X2042269D2*
X2082592D1*
X2163056D2*
X2245147D1*
X2342261D2*
X3703462D1*
X3783945D2*
X3803471D1*
X3883936D2*
X3903463D1*
X3983945D2*
X4352715D1*
X611639Y1984547D2*
X903472D1*
X983937D2*
X1103455D1*
X1183938D2*
X1827114D1*
X1938833D2*
X1950843D1*
X2036564D2*
X2082592D1*
X2163056D2*
X2250835D1*
X2336556D2*
X3703462D1*
X3783945D2*
X3803471D1*
X3883936D2*
X3903463D1*
X3983945D2*
X4352715D1*
X483945Y1959678D2*
X493568D1*
X593840D2*
X903472D1*
X983937D2*
X1103455D1*
X1183938D2*
X1802228D1*
X1913966D2*
X1936041D1*
X2051348D2*
X2082592D1*
X2163056D2*
X2236050D1*
X2351358D2*
X3703462D1*
X3783945D2*
X3803471D1*
X3883936D2*
X3903463D1*
X3983945D2*
X4352715D1*
X617399Y1934810D2*
X903472D1*
X983937D2*
X1104531D1*
X1208465D2*
X1777361D1*
X1889098D2*
X1934479D1*
X2052928D2*
X2082592D1*
X2163056D2*
X2234471D1*
X2352937D2*
X3703462D1*
X3783945D2*
X3803471D1*
X3883936D2*
X3903463D1*
X3983945D2*
X4352715D1*
X617399Y1909941D2*
X903472D1*
X983937D2*
X1121594D1*
X1230264D2*
X1752492D1*
X1864230D2*
X1944760D1*
X2042647D2*
X2082592D1*
X2163056D2*
X2244752D1*
X2342656D2*
X3703462D1*
X3783945D2*
X3803471D1*
X3883936D2*
X3903463D1*
X3983945D2*
X4352715D1*
X617399Y1885072D2*
X904459D1*
X1136014D2*
X1146463D1*
X1233942D2*
X1727625D1*
X1839362D2*
X1951381D1*
X2036026D2*
X2082592D1*
X2163056D2*
X2251373D1*
X2336017D2*
X3703462D1*
X3783945D2*
X3803471D1*
X3883936D2*
X3903463D1*
X3983945D2*
X4352715D1*
X1233942Y1860203D2*
X1702757D1*
X1814495D2*
X1936202D1*
X2051205D2*
X2082592D1*
X2163056D2*
X2236194D1*
X2383062D2*
X3703462D1*
X3783945D2*
X3803471D1*
X3883936D2*
X3903463D1*
X3983945D2*
X4004333D1*
X4233071D2*
X4352715D1*
X1233942Y1835335D2*
X1677890D1*
X1789627D2*
X1934390D1*
X2053017D2*
X2082592D1*
X2163056D2*
X2234399D1*
X2407929D2*
X3703462D1*
X3783945D2*
X3803471D1*
X3883936D2*
X3903463D1*
X4257938D2*
X4352715D1*
X1143030Y1810466D2*
X1153461D1*
X1233942D2*
X1653022D1*
X1764760D2*
X1944383D1*
X2043024D2*
X2082592D1*
X2163056D2*
X2244375D1*
X2432798D2*
X3703462D1*
X3783945D2*
X3803471D1*
X3883936D2*
X3903463D1*
X4282807D2*
X4352715D1*
X507664Y1785597D2*
X1153461D1*
X1233942D2*
X1413476D1*
X1477076D2*
X1610337D1*
X1739891D2*
X1951937D1*
X2035470D2*
X2082592D1*
X2163056D2*
X2251929D1*
X2335462D2*
X2345945D1*
X2457665D2*
X3703462D1*
X3783945D2*
X3803471D1*
X3883936D2*
X3903463D1*
X4159921D2*
X4195937D1*
X4307675D2*
X4352715D1*
X532533Y1760728D2*
X1153461D1*
X1233942D2*
X1394566D1*
X1495987D2*
X1591427D1*
X1715024D2*
X1936364D1*
X2163056D2*
X2236356D1*
X2351035D2*
X2370814D1*
X2482533D2*
X3703462D1*
X3783945D2*
X3803471D1*
X3883936D2*
X3903463D1*
X4159921D2*
X4220804D1*
X4329869D2*
X4352715D1*
X434694Y1735860D2*
X445680D1*
X557417D2*
X1129992D1*
X1233117D2*
X1392252D1*
X1498302D2*
X1589112D1*
X1695144D2*
X1934318D1*
X2163056D2*
X2234310D1*
X2353080D2*
X2395681D1*
X2507400D2*
X3703462D1*
X3783945D2*
X3803471D1*
X3883936D2*
X3903463D1*
X4159921D2*
X4245672D1*
X4333941D2*
X4352715D1*
X434694Y1710991D2*
X470549D1*
X582286D2*
X1105125D1*
X1216862D2*
X1403483D1*
X1487070D2*
X1600344D1*
X1683912D2*
X1944007D1*
X2163056D2*
X2243999D1*
X2343392D2*
X2420549D1*
X2532286D2*
X3703462D1*
X3783945D2*
X3803471D1*
X3883936D2*
X3903463D1*
X4159921D2*
X4253459D1*
X4333941D2*
X4352715D1*
X434694Y1686122D2*
X495416D1*
X607154D2*
X1080256D1*
X1191993D2*
X1952493D1*
X2034895D2*
X2045416D1*
X2163056D2*
X2252503D1*
X2334906D2*
X2445416D1*
X2557154D2*
X3703462D1*
X3783945D2*
X3803471D1*
X3883936D2*
X3903463D1*
X4159921D2*
X4253459D1*
X4333941D2*
X4352715D1*
X434694Y1661253D2*
X520283D1*
X632021D2*
X1055388D1*
X1167126D2*
X1936525D1*
X2050882D2*
X2070283D1*
X2182021D2*
X2236534D1*
X2350874D2*
X2470285D1*
X2582022D2*
X3703462D1*
X3783945D2*
X3803471D1*
X3883936D2*
X3903463D1*
X4182008D2*
X4253459D1*
X4333941D2*
X4352715D1*
X434694Y1636385D2*
X545151D1*
X656888D2*
X1030521D1*
X1142259D2*
X1934247D1*
X2053160D2*
X2095151D1*
X2206888D2*
X2234256D1*
X2353152D2*
X2495152D1*
X2606890D2*
X3703462D1*
X3783945D2*
X3803471D1*
X3883936D2*
X3903463D1*
X4206875D2*
X4253459D1*
X4333941D2*
X4352715D1*
X434694Y1611516D2*
X570020D1*
X681757D2*
X1005654D1*
X1117391D2*
X1943648D1*
X2043759D2*
X2120018D1*
X2231756D2*
X2243639D1*
X2343751D2*
X2520020D1*
X2631757D2*
X3703462D1*
X3783945D2*
X3803471D1*
X3883936D2*
X3903463D1*
X4229465D2*
X4253459D1*
X4333941D2*
X4352715D1*
X434694Y1586647D2*
X594887D1*
X706625D2*
X933777D1*
X1134310D2*
X1953085D1*
X2034322D2*
X2144886D1*
X2334314D2*
X2544887D1*
X2656625D2*
X3703462D1*
X3783945D2*
X3803471D1*
X3883936D2*
X3904126D1*
X4233932D2*
X4253459D1*
X4333941D2*
X4352715D1*
X434694Y1561778D2*
X619755D1*
X731492D2*
X933777D1*
X1150709D2*
X1855911D1*
X2050702D2*
X2169755D1*
X2350694D2*
X2569755D1*
X2681492D2*
X3703462D1*
X3783945D2*
X3803471D1*
X3883936D2*
X3919755D1*
X4233932D2*
X4253459D1*
X4333941D2*
X4352715D1*
X434694Y1536909D2*
X644622D1*
X756360D2*
X933777D1*
X1153220D2*
X1831043D1*
X2053214D2*
X2194622D1*
X2353224D2*
X2594623D1*
X2706361D2*
X3703462D1*
X3783945D2*
X3804081D1*
X3906364D2*
X3944622D1*
X4233932D2*
X4253459D1*
X4333941D2*
X4352715D1*
X434694Y1512041D2*
X669490D1*
X781227D2*
X933777D1*
X1144106D2*
X1806176D1*
X2044100D2*
X2220673D1*
X2344109D2*
X2619491D1*
X2731228D2*
X3703462D1*
X3783945D2*
X3819493D1*
X3931231D2*
X3969490D1*
X4233932D2*
X4253459D1*
X4333941D2*
X4352715D1*
X434694Y1487172D2*
X694358D1*
X806096D2*
X933777D1*
X1053625D2*
X1081118D1*
X1106285D2*
X1781308D1*
X1893046D2*
X1953677D1*
X2033711D2*
X2253688D1*
X2333720D2*
X2644358D1*
X2756096D2*
X3703462D1*
X3783945D2*
X3844361D1*
X3956098D2*
X3994357D1*
X4233932D2*
X4253459D1*
X4333941D2*
X4352715D1*
X434694Y1462303D2*
X719226D1*
X830963D2*
X953459D1*
X1033942D2*
X1756440D1*
X1868177D2*
X1936883D1*
X2080971D2*
X2236875D1*
X2350533D2*
X2669226D1*
X2780963D2*
X3703462D1*
X3783945D2*
X3869230D1*
X4233932D2*
X4253459D1*
X4333941D2*
X4352715D1*
X434694Y1437434D2*
X744093D1*
X855831D2*
X953459D1*
X1033942D2*
X1731572D1*
X1843310D2*
X1934121D1*
X2105839D2*
X2234130D1*
X2353278D2*
X2694093D1*
X2805831D2*
X3703462D1*
X3783945D2*
X3894097D1*
X4233932D2*
X4253459D1*
X4333941D2*
X4352715D1*
X434694Y1412566D2*
X768961D1*
X880698D2*
X953459D1*
X1033942D2*
X1708517D1*
X1818424D2*
X1942948D1*
X2130706D2*
X2242958D1*
X2344450D2*
X2718962D1*
X2830699D2*
X3703462D1*
X3783945D2*
X3919879D1*
X4233932D2*
X4253459D1*
X4333941D2*
X4352715D1*
X434694Y1387697D2*
X793829D1*
X905567D2*
X953459D1*
X1033942D2*
X1703457D1*
X1793556D2*
X1954306D1*
X2033101D2*
X2043836D1*
X2155573D2*
X2254297D1*
X2333093D2*
X2743829D1*
X2855567D2*
X3703462D1*
X3783945D2*
X4053458D1*
X4133941D2*
X4153467D1*
X4233932D2*
X4253459D1*
X4333941D2*
X4352715D1*
X434694Y1362828D2*
X818714D1*
X930434D2*
X953459D1*
X1033942D2*
X1703457D1*
X1783940D2*
X1937063D1*
X2050344D2*
X2068705D1*
X2178738D2*
X2237055D1*
X2350336D2*
X2768715D1*
X2878730D2*
X3703462D1*
X3783945D2*
X4053458D1*
X4133941D2*
X4153467D1*
X4233932D2*
X4253459D1*
X4333941D2*
X4352715D1*
X434694Y1337959D2*
X843583D1*
X1033942D2*
X1383066D1*
X1404339D2*
X1703457D1*
X1783940D2*
X1934067D1*
X2053340D2*
X2093572D1*
X2183941D2*
X2234059D1*
X2353332D2*
X2793583D1*
X2883933D2*
X3703462D1*
X3783945D2*
X4032089D1*
X4133492D2*
X4153467D1*
X4233932D2*
X4253459D1*
X4333941D2*
X4352715D1*
X434694Y1313091D2*
X868450D1*
X1033942D2*
X1347647D1*
X1783940D2*
X1942625D1*
X2044782D2*
X2103458D1*
X2183941D2*
X2242617D1*
X2344791D2*
X2803469D1*
X2883933D2*
X3703462D1*
X3783945D2*
X4007222D1*
X4118959D2*
X4153467D1*
X4233932D2*
X4253459D1*
X4333941D2*
X4352715D1*
X434694Y1288222D2*
X893318D1*
X1132462D2*
X1341278D1*
X1803622D2*
X1954933D1*
X2032474D2*
X2103458D1*
X2183941D2*
X2254944D1*
X2332465D2*
X2683777D1*
X2883933D2*
X3703462D1*
X3783945D2*
X3982354D1*
X4094092D2*
X4132350D1*
X4233538D2*
X4253459D1*
X4333941D2*
X4352715D1*
X434694Y1263353D2*
X918185D1*
X1150154D2*
X1348185D1*
X1803622D2*
X1937243D1*
X2050146D2*
X2103458D1*
X2183941D2*
X2237252D1*
X2350156D2*
X2683777D1*
X2883933D2*
X3703462D1*
X3783945D2*
X3957487D1*
X4069224D2*
X4107482D1*
X4219219D2*
X4253459D1*
X4333941D2*
X4352715D1*
X434694Y1238484D2*
X933777D1*
X1153382D2*
X1683774D1*
X1803622D2*
X1934013D1*
X2053375D2*
X2103458D1*
X2183941D2*
X2234022D1*
X2353386D2*
X2682610D1*
X2883933D2*
X3703462D1*
X3783945D2*
X3932618D1*
X4044356D2*
X4082614D1*
X4194352D2*
X4253459D1*
X4333941D2*
X4352715D1*
X434694Y1213615D2*
X933777D1*
X1145112D2*
X1683774D1*
X1803622D2*
X1942285D1*
X2045105D2*
X2103458D1*
X2183941D2*
X2242294D1*
X2345114D2*
X2657743D1*
X2883933D2*
X3703462D1*
X3783945D2*
X3907751D1*
X4019488D2*
X4057747D1*
X4169484D2*
X4253459D1*
X4333941D2*
X4352715D1*
X434694Y1188747D2*
X933777D1*
X1053625D2*
X1074551D1*
X1112852D2*
X1683774D1*
X1803622D2*
X1955597D1*
X2031810D2*
X2103458D1*
X2183941D2*
X2255589D1*
X2331819D2*
X2632875D1*
X2883933D2*
X3703462D1*
X3783945D2*
X3882883D1*
X3994621D2*
X4032879D1*
X4144617D2*
X4253459D1*
X4333941D2*
X4352715D1*
X434694Y1163878D2*
X953459D1*
X1033942D2*
X1687434D1*
X1799962D2*
X1937440D1*
X2049967D2*
X2103458D1*
X2183941D2*
X2237450D1*
X2349958D2*
X2608008D1*
X2883933D2*
X3703462D1*
X3783945D2*
X3858016D1*
X3969753D2*
X4008012D1*
X4119749D2*
X4253459D1*
X4333941D2*
X4352715D1*
X434694Y1139009D2*
X953459D1*
X1033942D2*
X1361749D1*
X1425654D2*
X1683972D1*
X1803424D2*
X1933978D1*
X2053429D2*
X2103458D1*
X2183941D2*
X2233969D1*
X2353421D2*
X2583140D1*
X2883933D2*
X3683134D1*
X3783639D2*
X3833147D1*
X3944885D2*
X3983143D1*
X4094881D2*
X4233148D1*
X4333636D2*
X4352715D1*
X434694Y1114140D2*
X953459D1*
X1033942D2*
X1343718D1*
X1629135D2*
X1691974D1*
X1795423D2*
X1941979D1*
X2045428D2*
X2103458D1*
X2183941D2*
X2241971D1*
X2345437D2*
X2558272D1*
X2670009D2*
X2691976D1*
X2795425D2*
X2803469D1*
X2883933D2*
X3658266D1*
X3770004D2*
X3808280D1*
X3920000D2*
X3958276D1*
X4070013D2*
X4208281D1*
X4320000D2*
X4352715D1*
X434694Y1089272D2*
X953459D1*
X1033942D2*
X1342175D1*
X1654003D2*
X1722907D1*
X1764491D2*
X1956261D1*
X2031127D2*
X2103458D1*
X2183941D2*
X2256270D1*
X2331138D2*
X2533404D1*
X2645142D2*
X2722909D1*
X2764492D2*
X2803469D1*
X2883933D2*
X3633398D1*
X3745135D2*
X3783412D1*
X3895131D2*
X3933408D1*
X4045146D2*
X4183413D1*
X4295133D2*
X4352715D1*
X434694Y1064403D2*
X953459D1*
X1033942D2*
X1354913D1*
X1678870D2*
X1937638D1*
X2049752D2*
X2103458D1*
X2183941D2*
X2237647D1*
X2349761D2*
X2508537D1*
X2620274D2*
X2803469D1*
X2883933D2*
X3608530D1*
X3720268D2*
X3758545D1*
X3870264D2*
X3908541D1*
X4020278D2*
X4158528D1*
X4270265D2*
X4352715D1*
X434694Y1039534D2*
X953459D1*
X1033942D2*
X1592001D1*
X1703739D2*
X1933923D1*
X2053466D2*
X2103458D1*
X2183941D2*
X2233933D1*
X2353475D2*
X2483669D1*
X2595407D2*
X2803469D1*
X2883933D2*
X3583663D1*
X3695400D2*
X3733659D1*
X3845396D2*
X3883672D1*
X3995392D2*
X4133660D1*
X4245398D2*
X4352715D1*
X434694Y1014665D2*
X953459D1*
X1033942D2*
X1616869D1*
X1728606D2*
X1941656D1*
X2045732D2*
X2103458D1*
X2183941D2*
X2241665D1*
X2345743D2*
X2458802D1*
X2570539D2*
X2803469D1*
X2883933D2*
X3558795D1*
X3670533D2*
X3708791D1*
X3820529D2*
X3858804D1*
X3970525D2*
X4108791D1*
X4220529D2*
X4352715D1*
X434694Y989797D2*
X933777D1*
X1130434D2*
X1641736D1*
X1753474D2*
X1971423D1*
X2015984D2*
X2103673D1*
X2203479D2*
X2271413D1*
X2315995D2*
X2433933D1*
X2545671D2*
X2803469D1*
X2883933D2*
X3533928D1*
X3645665D2*
X3683923D1*
X3795660D2*
X3833937D1*
X3945656D2*
X4083924D1*
X4195661D2*
X4352715D1*
X434694Y964928D2*
X933777D1*
X1149560D2*
X1666604D1*
X2228348D2*
X2409066D1*
X2520803D2*
X2803469D1*
X2883933D2*
X3509059D1*
X3620797D2*
X3659055D1*
X3770793D2*
X3809051D1*
X3920789D2*
X4059056D1*
X4170794D2*
X4352715D1*
X434694Y940059D2*
X933777D1*
X1153508D2*
X1691471D1*
X2253215D2*
X2384198D1*
X2495917D2*
X2803469D1*
X2883933D2*
X3484192D1*
X3595929D2*
X3634188D1*
X3745925D2*
X3784184D1*
X3895921D2*
X4034189D1*
X4145927D2*
X4352715D1*
X434694Y915190D2*
X933777D1*
X1146045D2*
X1716429D1*
X2471050D2*
X2803469D1*
X2883933D2*
X3459324D1*
X3571062D2*
X3609320D1*
X3721058D2*
X3759316D1*
X3871054D2*
X4009322D1*
X4121059D2*
X4352715D1*
X434694Y890322D2*
X933777D1*
X1053625D2*
X1070029D1*
X1117354D2*
X2191213D1*
X2446182D2*
X2784450D1*
X2883790D2*
X3434457D1*
X3546194D2*
X3584453D1*
X3696190D2*
X3734448D1*
X3846185D2*
X3984453D1*
X4096190D2*
X4352715D1*
X434694Y865453D2*
X953459D1*
X1033942D2*
X1359579D1*
X1577820D2*
X2216171D1*
X2421224D2*
X2759583D1*
X2871320D2*
X3409589D1*
X3521327D2*
X3559584D1*
X3671322D2*
X3709580D1*
X3821318D2*
X3959585D1*
X4071323D2*
X4352715D1*
X434694Y840584D2*
X953459D1*
X1033942D2*
X1334711D1*
X1602689D2*
X2734715D1*
X2846453D2*
X3384720D1*
X3496458D2*
X3534717D1*
X3646454D2*
X3684713D1*
X3796450D2*
X3934718D1*
X4046455D2*
X4352715D1*
X434694Y815715D2*
X953459D1*
X1033942D2*
X1309844D1*
X1627556D2*
X2709846D1*
X2821584D2*
X3360552D1*
X3471591D2*
X3509849D1*
X3621587D2*
X3659845D1*
X3771583D2*
X3909850D1*
X4021588D2*
X4352715D1*
X434694Y790846D2*
X953459D1*
X1033942D2*
X1284975D1*
X1396713D2*
X1540686D1*
X1652424D2*
X1921955D1*
X1965459D2*
X2221948D1*
X2265451D2*
X2684979D1*
X2796717D2*
X3353466D1*
X3446705D2*
X3484982D1*
X3596719D2*
X3634978D1*
X3746715D2*
X3884983D1*
X3996720D2*
X4352715D1*
X434694Y765978D2*
X953459D1*
X1033942D2*
X1260108D1*
X1371845D2*
X1565554D1*
X1676664D2*
X1895402D1*
X1991996D2*
X2195411D1*
X2291988D2*
X2660112D1*
X2771849D2*
X3353466D1*
X3433930D2*
X3460741D1*
X3571852D2*
X3610109D1*
X3721846D2*
X3860114D1*
X3971852D2*
X4352715D1*
X434694Y741109D2*
X933777D1*
X1128605D2*
X1235240D1*
X1346978D2*
X1477476D1*
X1688774D2*
X1890343D1*
X2002151D2*
X2190333D1*
X2297066D2*
X2635244D1*
X2746982D2*
X2948656D1*
X3038756D2*
X3048647D1*
X3138765D2*
X3148639D1*
X3238756D2*
X3248630D1*
X3338765D2*
X3348639D1*
X3438774D2*
X3448631D1*
X3696979D2*
X3835247D1*
X3946984D2*
X4352715D1*
X434694Y716240D2*
X933777D1*
X1149022D2*
X1210373D1*
X1322110D2*
X1477476D1*
X1705802D2*
X1898308D1*
X2027037D2*
X2198318D1*
X2289081D2*
X2610377D1*
X2722114D2*
X2931612D1*
X3672112D2*
X3810379D1*
X3922098D2*
X4352715D1*
X434694Y691371D2*
X933777D1*
X1153580D2*
X1185505D1*
X1297243D2*
X1477476D1*
X1709874D2*
X1940167D1*
X2051904D2*
X2585508D1*
X2697245D2*
X2927521D1*
X3659929D2*
X3785512D1*
X3897231D2*
X4352715D1*
X434694Y666503D2*
X933777D1*
X1146780D2*
X1160636D1*
X1272374D2*
X1477476D1*
X1703828D2*
X1965035D1*
X2672378D2*
X2933567D1*
X3659929D2*
X3760643D1*
X3872364D2*
X4352715D1*
X434694Y641634D2*
X933777D1*
X1053625D2*
X1066997D1*
X1120406D2*
X1135769D1*
X1247507D2*
X1477476D1*
X1682925D2*
X1965698D1*
X2647492D2*
X2954433D1*
X3032961D2*
X3054442D1*
X3132951D2*
X3154451D1*
X3232961D2*
X3254461D1*
X3332951D2*
X3353520D1*
X3659929D2*
X3735759D1*
X3847496D2*
X4352715D1*
X434694Y616765D2*
X964762D1*
X1222639D2*
X1514778D1*
X2622625D2*
X3364769D1*
X3476507D2*
X3710890D1*
X3822627D2*
X4352715D1*
X434694Y591896D2*
X989631D1*
X1197772D2*
X1539646D1*
X2027701D2*
X3389636D1*
X3501374D2*
X3686022D1*
X3797760D2*
X4352715D1*
X434694Y567028D2*
X1014499D1*
X1172903D2*
X1564513D1*
X2002833D2*
X3414505D1*
X3772892D2*
X4352715D1*
X434694Y542159D2*
X3439373D1*
X3748025D2*
X4352715D1*
X434694Y517290D2*
X3464240D1*
X3723156D2*
X4352715D1*
X434694Y492421D2*
X4352715D1*
X434694Y467552D2*
X3220353D1*
X434694Y442684D2*
X1230844D1*
X481444Y1946004D2*
X518513D1*
X515398Y1947265D1*
X512613Y1948543D1*
X509886Y1949940D1*
X507222Y1951453D1*
X504625Y1953079D1*
X502100Y1954815D1*
X499652Y1956659D1*
X497286Y1958605D1*
X495007Y1960652D1*
X492816Y1962795D1*
X490722Y1965030D1*
X488724Y1967353D1*
X486828Y1969761D1*
X485038Y1972247D1*
X483356Y1974808D1*
X481786Y1977440D1*
X481438Y1978084D1*
X481437Y1946009D1*
X614902Y1805965D2*
Y1803602D1*
X487163D1*
X955961Y1334808D1*
X955965Y1486283D1*
X936280Y1486280D1*
Y1601122D1*
X997759D1*
X1155966Y1759333D1*
X1155965Y1878070D1*
X1117017Y1917017D1*
X1111373Y1924236D1*
X1107634Y1932602D1*
X1106022Y1941631D1*
X1105965Y1952791D1*
Y2092839D1*
X1099795Y2098066D1*
X1093710Y2104844D1*
X1092094Y2102856D1*
X1090064Y2100566D1*
X1087927Y2098375D1*
X1085685Y2096293D1*
X1083346Y2094319D1*
X1080913Y2092462D1*
X1078395Y2090723D1*
X1075795Y2089109D1*
X1073119Y2087622D1*
X1070377Y2086266D1*
X1067570Y2085045D1*
X1064709Y2083959D1*
X1061798Y2083014D1*
X1058844Y2082211D1*
X1055856Y2081551D1*
X1052839Y2081037D1*
X1049801Y2080668D1*
X1046748Y2080448D1*
X1043689Y2080374D1*
X1040630Y2080449D1*
X1037577Y2080671D1*
X1034539Y2081041D1*
X1031522Y2081556D1*
X1028534Y2082217D1*
X1025581Y2083021D1*
X1022671Y2083967D1*
X1019810Y2085054D1*
X1017004Y2086277D1*
X1014261Y2087634D1*
X1011587Y2089121D1*
X1008987Y2090736D1*
X1007028Y2092089D1*
Y2080374D1*
X981433D1*
X981437Y1909339D1*
X989644Y1901123D1*
X1051122Y1901122D1*
Y1882220D1*
X1051512Y1882654D1*
X1053646Y1884844D1*
X1055891Y1886917D1*
X1058245Y1888869D1*
X1060699Y1890692D1*
X1063247Y1892381D1*
X1065882Y1893933D1*
X1068594Y1895343D1*
X1071378Y1896605D1*
X1074226Y1897719D1*
X1077129Y1898678D1*
X1080077Y1899483D1*
X1083066Y1900129D1*
X1086084Y1900614D1*
X1089123Y1900940D1*
X1092177Y1901102D1*
X1095234Y1901101D1*
X1098287Y1900938D1*
X1101327Y1900613D1*
X1104345Y1900127D1*
X1107333Y1899480D1*
X1110282Y1898676D1*
X1113185Y1897715D1*
X1116031Y1896602D1*
X1118816Y1895339D1*
X1121529Y1893929D1*
X1124163Y1892377D1*
X1126710Y1890686D1*
X1129164Y1888862D1*
X1131517Y1886911D1*
X1133762Y1884837D1*
X1135895Y1882647D1*
X1137908Y1880346D1*
X1139797Y1877941D1*
X1141554Y1875440D1*
X1143175Y1872848D1*
X1144656Y1870173D1*
X1145992Y1867424D1*
X1147181Y1864608D1*
X1148218Y1861731D1*
X1149100Y1858804D1*
X1149825Y1855835D1*
X1150391Y1852829D1*
X1150797Y1849799D1*
X1151041Y1846752D1*
X1151122Y1843701D1*
X1151041Y1840640D1*
X1150797Y1837593D1*
X1150390Y1834563D1*
X1149824Y1831559D1*
X1149097Y1828589D1*
X1148215Y1825661D1*
X1147177Y1822786D1*
X1145988Y1819970D1*
X1144651Y1817220D1*
X1143171Y1814546D1*
X1141549Y1811954D1*
X1139791Y1809453D1*
X1137903Y1807049D1*
X1135890Y1804748D1*
X1133756Y1802558D1*
X1131510Y1800484D1*
X1129156Y1798533D1*
X1126702Y1796710D1*
X1124155Y1795021D1*
X1121520Y1793469D1*
X1118807Y1792059D1*
X1116024Y1790797D1*
X1113176Y1789682D1*
X1110273Y1788723D1*
X1107324Y1787919D1*
X1104336Y1787273D1*
X1101318Y1786787D1*
X1098278Y1786462D1*
X1095224Y1786299D1*
X1092168Y1786301D1*
X1089114Y1786463D1*
X1086075Y1786789D1*
X1083056Y1787274D1*
X1080068Y1787921D1*
X1077119Y1788726D1*
X1074217Y1789686D1*
X1071370Y1790799D1*
X1068585Y1792063D1*
X1065873Y1793472D1*
X1063239Y1795025D1*
X1060692Y1796715D1*
X1058238Y1798539D1*
X1055885Y1800491D1*
X1053639Y1802564D1*
X1051507Y1804755D1*
X1051122Y1805193D1*
Y1786280D1*
X936280D1*
Y1805971D1*
X736563Y1805965D1*
X614907D1*
X1607421Y641308D2*
Y633356D1*
X1609335Y631434D1*
X1630154Y631437D1*
X1628794Y631748D1*
X1627014Y632205D1*
X1625248Y632711D1*
X1623497Y633268D1*
X1621764Y633875D1*
X1620047Y634533D1*
X1618352Y635239D1*
X1616677Y635995D1*
X1615025Y636798D1*
X1613396Y637648D1*
X1611793Y638545D1*
X1607420Y641509D1*
X1496306Y1740640D2*
X1496031Y1737594D1*
X1495576Y1734570D1*
X1494940Y1731577D1*
X1494126Y1728630D1*
X1493136Y1725735D1*
X1491976Y1722904D1*
X1490650Y1720150D1*
X1489160Y1717478D1*
X1487513Y1714900D1*
X1485715Y1712425D1*
X1483772Y1710063D1*
X1481692Y1707822D1*
X1479480Y1705707D1*
X1477147Y1703730D1*
X1474699Y1701895D1*
X1472147Y1700211D1*
X1469499Y1698681D1*
X1466762Y1697314D1*
X1463950Y1696112D1*
X1461071Y1695080D1*
X1458134Y1694222D1*
X1455152Y1693542D1*
X1452135Y1693041D1*
X1449093Y1692722D1*
X1446037Y1692584D1*
X1442979Y1692630D1*
X1439929Y1692860D1*
X1436898Y1693270D1*
X1433896Y1693861D1*
X1430937Y1694631D1*
X1428028Y1695576D1*
X1425181Y1696694D1*
X1422406Y1697980D1*
X1419713Y1699429D1*
X1417110Y1701037D1*
X1414609Y1702798D1*
X1412218Y1704705D1*
X1409945Y1706752D1*
X1407798Y1708932D1*
X1405786Y1711235D1*
X1403915Y1713655D1*
X1402193Y1716181D1*
X1400623Y1718807D1*
X1399215Y1721522D1*
X1397971Y1724316D1*
X1396896Y1727181D1*
X1395995Y1730104D1*
X1395270Y1733075D1*
X1394724Y1736084D1*
X1394360Y1739121D1*
X1394176Y1742175D1*
X1394177Y1745234D1*
X1394360Y1748286D1*
X1394724Y1751323D1*
X1395272Y1754332D1*
X1395996Y1757304D1*
X1396899Y1760227D1*
X1397974Y1763091D1*
X1399218Y1765885D1*
X1400626Y1768600D1*
X1402196Y1771224D1*
X1403919Y1773752D1*
X1405790Y1776172D1*
X1407803Y1778475D1*
X1409949Y1780654D1*
X1412222Y1782699D1*
X1414614Y1784608D1*
X1417115Y1786367D1*
X1419717Y1787975D1*
X1422411Y1789424D1*
X1425186Y1790710D1*
X1428033Y1791827D1*
X1430942Y1792773D1*
X1433903Y1793542D1*
X1436904Y1794133D1*
X1439934Y1794543D1*
X1442986Y1794772D1*
X1446043Y1794818D1*
X1449098Y1794680D1*
X1452140Y1794360D1*
X1455159Y1793858D1*
X1458140Y1793177D1*
X1461076Y1792320D1*
X1463955Y1791287D1*
X1466768Y1790085D1*
X1469504Y1788718D1*
X1472152Y1787188D1*
X1474705Y1785503D1*
X1477152Y1783668D1*
X1479486Y1781690D1*
X1481696Y1779576D1*
X1483776Y1777333D1*
X1485719Y1774971D1*
X1487516Y1772496D1*
X1489163Y1769919D1*
X1490652Y1767247D1*
X1491979Y1764491D1*
X1493139Y1761661D1*
X1494127Y1758766D1*
X1494941Y1755818D1*
X1495576Y1752825D1*
X1496033Y1749802D1*
X1496306Y1746755D1*
X1496398Y1743701D1*
X1496306Y1740640D1*
X3107421Y2654056D2*
Y2646091D1*
X3108501Y2646816D1*
X3111088Y2648444D1*
X3113751Y2649944D1*
X3116482Y2651315D1*
X3119276Y2652554D1*
X3122125Y2653657D1*
X3125025Y2654623D1*
X3127967Y2655449D1*
X3130945Y2656131D1*
X3133953Y2656672D1*
X3136984Y2657066D1*
X3140029Y2657315D1*
X3143084Y2657419D1*
X3146139Y2657374D1*
X3149189Y2657185D1*
X3152227Y2656848D1*
X3155244Y2656367D1*
X3158236Y2655741D1*
X3161193Y2654974D1*
X3164112Y2654064D1*
X3166982Y2653016D1*
X3169799Y2651832D1*
X3172556Y2650513D1*
X3175247Y2649064D1*
X3177865Y2647488D1*
X3180404Y2645789D1*
X3182860Y2643969D1*
X3185224Y2642034D1*
X3187493Y2639987D1*
X3189663Y2637835D1*
X3191726Y2635580D1*
X3193702Y2633198D1*
X3195601Y2635495D1*
X3202038Y2641915D1*
X3205959Y2644841D1*
X3205965Y2665945D1*
X3207077Y2675041D1*
X3210349Y2683600D1*
X3215594Y2691125D1*
X3223497Y2699108D1*
X3280353Y2755965D1*
X3209332D1*
X3107417Y2654051D1*
X3293608Y2554314D2*
X3291801Y2551907D1*
X3285364Y2545487D1*
X3281415Y2542539D1*
X3280324Y2534605D1*
X3277052Y2526046D1*
X3271806Y2518521D1*
X3264134Y2510768D1*
X3120385Y2367017D1*
X3113165Y2361373D1*
X3104799Y2357634D1*
X3095770Y2356022D1*
X3084554Y2355965D1*
X2359325D1*
X2350984Y2347617D1*
X2351122Y2343701D1*
X2350388Y2334554D1*
X2348188Y2325579D1*
X2344575Y2317073D1*
X2339644Y2309257D1*
X2333525Y2302333D1*
X2326373Y2296480D1*
X2321757Y2293808D1*
X2328867Y2289093D1*
X2335694Y2282865D1*
X2336820Y2281442D1*
X2541726Y2281437D1*
X3122555D1*
X3355971Y2514849D1*
X3355958Y2528076D1*
X3353324Y2530711D1*
X3352682Y2530617D1*
X3343614Y2529980D1*
X3334546Y2530642D1*
X3325665Y2532587D1*
X3317151Y2535774D1*
X3309177Y2540143D1*
X3301907Y2545601D1*
X3295487Y2552038D1*
X3293793Y2554308D1*
X3560795Y757421D2*
X3604054D1*
X4155966Y1309335D1*
X4155965Y1430155D1*
X4154815Y1425665D1*
X4151627Y1417151D1*
X4150837Y1415492D1*
X4150000Y1413857D1*
X4149117Y1412247D1*
X4144076Y1404680D1*
X4138010Y1397908D1*
X4131444Y1392404D1*
X4131437Y1343701D1*
X4130324Y1334605D1*
X4127052Y1326046D1*
X4121807Y1318521D1*
X4113862Y1310496D1*
X3560793Y757425D1*
X3657421Y704052D2*
Y629980D1*
X3529980D1*
Y641311D1*
X3528077Y640046D1*
X3520092Y635699D1*
X3511570Y632534D1*
X3502682Y630613D1*
X3493613Y629978D1*
X3484546Y630638D1*
X3475665Y632583D1*
X3467151Y635772D1*
X3459177Y640139D1*
X3451907Y645598D1*
X3445487Y652035D1*
X3443793Y654304D1*
X3441801Y651900D1*
X3440336Y650440D1*
X3509335Y581434D1*
X3678077Y581437D1*
X3887898Y791265D1*
X4255966Y1159333D1*
X4255965Y1728077D1*
X4178067Y1805967D1*
X4157421Y1805965D1*
Y1679980D1*
X4154087D1*
X4156314Y1679266D1*
X4158030Y1678610D1*
X4159713Y1677871D1*
X4161356Y1677052D1*
X4168881Y1671807D1*
X4176634Y1664134D1*
X4220385Y1620385D1*
X4226029Y1613165D1*
X4229768Y1604799D1*
X4231379Y1595770D1*
X4231437Y1585367D1*
Y1293702D1*
X4230324Y1284606D1*
X4227052Y1276046D1*
X4221807Y1268522D1*
X4213862Y1260496D1*
X3657419Y704051D1*
X2294534Y740640D2*
X2294256Y737577D1*
X2293794Y734535D1*
X2293150Y731528D1*
X2292324Y728564D1*
X2291322Y725656D1*
X2290146Y722814D1*
X2288799Y720047D1*
X2287289Y717367D1*
X2285619Y714783D1*
X2283797Y712306D1*
X2281828Y709942D1*
X2279720Y707702D1*
X2277482Y705592D1*
X2275118Y703622D1*
X2272642Y701798D1*
X2270059Y700127D1*
X2267379Y698615D1*
X2264614Y697268D1*
X2261773Y696091D1*
X2258865Y695085D1*
X2255902Y694259D1*
X2252895Y693613D1*
X2249853Y693148D1*
X2246790Y692869D1*
X2243715Y692776D1*
X2240640Y692867D1*
X2237577Y693146D1*
X2234535Y693608D1*
X2231528Y694252D1*
X2228564Y695077D1*
X2225656Y696080D1*
X2222814Y697256D1*
X2220047Y698602D1*
X2217367Y700113D1*
X2214783Y701782D1*
X2212306Y703605D1*
X2209942Y705573D1*
X2207702Y707681D1*
X2205592Y709920D1*
X2203622Y712283D1*
X2201798Y714760D1*
X2200127Y717343D1*
X2198615Y720022D1*
X2197268Y722787D1*
X2196091Y725629D1*
X2195085Y728537D1*
X2194259Y731500D1*
X2193613Y734507D1*
X2193148Y737549D1*
X2192869Y740612D1*
X2192776Y743686D1*
X2192867Y746761D1*
X2193146Y749824D1*
X2193608Y752866D1*
X2194252Y755874D1*
X2195077Y758837D1*
X2196080Y761745D1*
X2197256Y764588D1*
X2198602Y767354D1*
X2200113Y770034D1*
X2201782Y772618D1*
X2203605Y775096D1*
X2205573Y777459D1*
X2207681Y779699D1*
X2209920Y781810D1*
X2212283Y783780D1*
X2214760Y785604D1*
X2217343Y787274D1*
X2220022Y788786D1*
X2222787Y790134D1*
X2225629Y791311D1*
X2228537Y792316D1*
X2231500Y793143D1*
X2234507Y793789D1*
X2237549Y794253D1*
X2240612Y794533D1*
X2243686Y794626D1*
X2246761Y794534D1*
X2249824Y794256D1*
X2252866Y793794D1*
X2255874Y793150D1*
X2258837Y792324D1*
X2261745Y791322D1*
X2264588Y790146D1*
X2267354Y788799D1*
X2270034Y787289D1*
X2272618Y785619D1*
X2275096Y783797D1*
X2277459Y781828D1*
X2279699Y779720D1*
X2281810Y777482D1*
X2283780Y775118D1*
X2285604Y772642D1*
X2287274Y770059D1*
X2288786Y767379D1*
X2290134Y764614D1*
X2291311Y761773D1*
X2292316Y758865D1*
X2293143Y755902D1*
X2293789Y752895D1*
X2294253Y749853D1*
X2294533Y746790D1*
X2294626Y743701D1*
X2294534Y740640D1*
X4041315Y1679980D2*
X4031436D1*
X4031437Y1659332D1*
X4031828Y1658941D1*
X4032181Y1660303D1*
X4032685Y1662071D1*
X4033240Y1663822D1*
X4033845Y1665556D1*
X4034500Y1667273D1*
X4035205Y1668970D1*
X4035958Y1670646D1*
X4036759Y1672299D1*
X4037606Y1673929D1*
X4038501Y1675533D1*
X4041510Y1679983D1*
X4136954Y1597073D2*
X4135364Y1595487D1*
X4133093Y1593793D1*
X4138816Y1588699D1*
X4144761Y1581820D1*
X4149667Y1574165D1*
X4150521Y1572539D1*
X4151329Y1570890D1*
X4152089Y1569217D1*
X4152801Y1567524D1*
X4153463Y1565810D1*
X4154075Y1564077D1*
X4154638Y1562328D1*
X4155150Y1560564D1*
X4155610Y1558785D1*
X4155965Y1557234D1*
Y1578064D1*
X4137049Y1596986D1*
X4155963Y1530908D2*
X4154915Y1526121D1*
X4155965Y1526122D1*
X4155963Y1530908D1*
X4154944Y1461278D2*
X4155547Y1459039D1*
X4155965Y1457248D1*
Y1461283D1*
X4154942Y1461280D1*
X975059Y2452058D2*
X974823Y2449008D1*
X974430Y2445975D1*
X973882Y2442966D1*
X973178Y2439990D1*
X972324Y2437054D1*
X971319Y2434165D1*
X970167Y2431332D1*
X968870Y2428562D1*
X967432Y2425862D1*
X965858Y2423241D1*
X964151Y2420703D1*
X962315Y2418257D1*
X960356Y2415909D1*
X958278Y2413665D1*
X956088Y2411530D1*
X953790Y2409512D1*
X951392Y2407614D1*
X948899Y2405841D1*
X946319Y2404201D1*
X943656Y2402694D1*
X940921Y2401327D1*
X938118Y2400102D1*
X935257Y2399024D1*
X932344Y2398094D1*
X929386Y2397315D1*
X926392Y2396690D1*
X923370Y2396219D1*
X920328Y2395906D1*
X917274Y2395748D1*
X914215D1*
X911161Y2395906D1*
X908119Y2396220D1*
X905097Y2396692D1*
X902104Y2397318D1*
X899146Y2398096D1*
X896232Y2399026D1*
X893371Y2400105D1*
X890568Y2401331D1*
X887833Y2402698D1*
X885172Y2404205D1*
X882591Y2405845D1*
X880098Y2407618D1*
X877701Y2409516D1*
X875404Y2411535D1*
X873214Y2413669D1*
X871136Y2415915D1*
X869177Y2418262D1*
X867341Y2420709D1*
X865635Y2423247D1*
X864060Y2425869D1*
X862623Y2428568D1*
X861327Y2431339D1*
X860175Y2434172D1*
X859171Y2437060D1*
X858315Y2439996D1*
X857613Y2442974D1*
X857066Y2445982D1*
X856673Y2449014D1*
X856437Y2452064D1*
X856358Y2455122D1*
X856437Y2458178D1*
X856673Y2461228D1*
X857066Y2464261D1*
X857614Y2467270D1*
X858318Y2470247D1*
X859172Y2473182D1*
X860177Y2476071D1*
X861329Y2478904D1*
X862626Y2481675D1*
X864064Y2484374D1*
X865638Y2486995D1*
X867345Y2489533D1*
X869181Y2491979D1*
X871140Y2494327D1*
X873218Y2496571D1*
X875408Y2498706D1*
X877706Y2500724D1*
X880104Y2502622D1*
X882597Y2504395D1*
X885177Y2506035D1*
X887840Y2507542D1*
X890575Y2508909D1*
X893378Y2510134D1*
X896239Y2511213D1*
X899152Y2512142D1*
X902110Y2512921D1*
X905104Y2513546D1*
X908126Y2514017D1*
X911168Y2514331D1*
X914222Y2514488D1*
X917281D1*
X920335Y2514331D1*
X923377Y2514016D1*
X926399Y2513545D1*
X929392Y2512919D1*
X932350Y2512140D1*
X935264Y2511210D1*
X938125Y2510131D1*
X940928Y2508906D1*
X943663Y2507538D1*
X946324Y2506031D1*
X948906Y2504391D1*
X951398Y2502618D1*
X953795Y2500720D1*
X956092Y2498701D1*
X958282Y2496567D1*
X960360Y2494322D1*
X962319Y2491974D1*
X964155Y2489528D1*
X965861Y2486990D1*
X967436Y2484367D1*
X968873Y2481668D1*
X970169Y2478898D1*
X971322Y2476064D1*
X972325Y2473176D1*
X973181Y2470240D1*
X973883Y2467262D1*
X974430Y2464255D1*
X974823Y2461222D1*
X975059Y2458172D1*
X975138Y2455118D1*
X975059Y2452058D1*
X2319176Y2422379D2*
X2326819Y2427450D1*
X2335453Y2430525D1*
X2343701Y2431437D1*
X3078076D1*
X3197073Y2550448D1*
X3195487Y2552038D1*
X3193793Y2554308D1*
X3193689Y2554214D1*
X3192591Y2552833D1*
X3190575Y2550537D1*
X3188451Y2548339D1*
X3186226Y2546245D1*
X3183902Y2544261D1*
X3181484Y2542391D1*
X3178980Y2540639D1*
X3176396Y2539008D1*
X3173736Y2537504D1*
X3171008Y2536127D1*
X3168215Y2534885D1*
X3165367Y2533777D1*
X3162470Y2532807D1*
X3159529Y2531978D1*
X3156551Y2531290D1*
X3153545Y2530745D1*
X3150514Y2530345D1*
X3147469Y2530092D1*
X3144415Y2529984D1*
X3141360Y2530024D1*
X3138308Y2530209D1*
X3135270Y2530541D1*
X3132252Y2531017D1*
X3129260Y2531638D1*
X3126302Y2532402D1*
X3123382Y2533307D1*
X3120510Y2534350D1*
X3117692Y2535530D1*
X3114932Y2536844D1*
X3112239Y2538289D1*
X3109618Y2539861D1*
X3107421Y2541308D1*
Y2529980D1*
X2979980D1*
Y2605955D1*
X2942627Y2605965D1*
X2359339D1*
X2160560Y2407193D1*
X2160563Y1680210D1*
X2254811Y1585958D1*
X2257135Y1587975D1*
X2264711Y1593266D1*
X2265531Y1593661D1*
X2265270Y1593812D1*
X2257636Y1599018D1*
X2250936Y1605382D1*
X2245343Y1612739D1*
X2241001Y1620896D1*
X2238026Y1629646D1*
X2236492Y1638759D1*
X2236441Y1647999D1*
X2237871Y1657129D1*
X2240748Y1665911D1*
X2244997Y1674117D1*
X2250507Y1681535D1*
X2257135Y1687975D1*
X2264711Y1693266D1*
X2265531Y1693661D1*
X2263193Y1695055D1*
X2260647Y1696747D1*
X2258194Y1698573D1*
X2255844Y1700526D1*
X2253600Y1702602D1*
X2251469Y1704795D1*
X2249458Y1707098D1*
X2247572Y1709504D1*
X2245818Y1712008D1*
X2244199Y1714601D1*
X2242720Y1717277D1*
X2241386Y1720028D1*
X2240201Y1722845D1*
X2239167Y1725723D1*
X2238287Y1728651D1*
X2237564Y1731621D1*
X2237001Y1734626D1*
X2236598Y1737656D1*
X2236358Y1740705D1*
X2236280Y1743760D1*
X2236364Y1746816D1*
X2236612Y1749864D1*
X2237020Y1752894D1*
X2237589Y1755896D1*
X2238319Y1758866D1*
X2239203Y1761793D1*
X2240244Y1764667D1*
X2241436Y1767482D1*
X2242776Y1770230D1*
X2244260Y1772903D1*
X2245883Y1775493D1*
X2247643Y1777993D1*
X2249534Y1780395D1*
X2251550Y1782694D1*
X2253685Y1784882D1*
X2255933Y1786954D1*
X2258289Y1788903D1*
X2260744Y1790723D1*
X2263294Y1792411D1*
X2265479Y1793696D1*
X2265046Y1793940D1*
X2257436Y1799181D1*
X2250764Y1805575D1*
X2245203Y1812957D1*
X2240900Y1821134D1*
X2237963Y1829896D1*
X2236471Y1839016D1*
X2236461Y1848257D1*
X2237933Y1857379D1*
X2240849Y1866148D1*
X2245134Y1874336D1*
X2250677Y1881730D1*
X2257335Y1888139D1*
X2264934Y1893396D1*
X2265513Y1893672D1*
X2265270Y1893812D1*
X2257636Y1899018D1*
X2250936Y1905382D1*
X2245343Y1912739D1*
X2241001Y1920896D1*
X2238026Y1929646D1*
X2236492Y1938759D1*
X2236441Y1947999D1*
X2237871Y1957129D1*
X2240748Y1965911D1*
X2244997Y1974117D1*
X2250507Y1981535D1*
X2257135Y1987975D1*
X2264711Y1993266D1*
X2265531Y1993661D1*
X2265270Y1993812D1*
X2257636Y1999018D1*
X2250936Y2005382D1*
X2245343Y2012739D1*
X2241001Y2020896D1*
X2238026Y2029646D1*
X2236492Y2038759D1*
X2236441Y2047999D1*
X2237871Y2057129D1*
X2240748Y2065911D1*
X2244997Y2074117D1*
X2250507Y2081535D1*
X2257135Y2087975D1*
X2264711Y2093266D1*
X2265531Y2093661D1*
X2265270Y2093812D1*
X2257636Y2099018D1*
X2250936Y2105382D1*
X2245343Y2112739D1*
X2241001Y2120896D1*
X2238026Y2129646D1*
X2236492Y2138759D1*
X2236441Y2147999D1*
X2237871Y2157129D1*
X2240748Y2165911D1*
X2244997Y2174117D1*
X2250507Y2181535D1*
X2257135Y2187975D1*
X2264711Y2193266D1*
X2265531Y2193661D1*
X2265270Y2193812D1*
X2257636Y2199018D1*
X2250936Y2205382D1*
X2245343Y2212739D1*
X2241001Y2220896D1*
X2238026Y2229646D1*
X2236492Y2238759D1*
X2236441Y2247999D1*
X2237871Y2257129D1*
X2240748Y2265911D1*
X2244997Y2274117D1*
X2250507Y2281535D1*
X2257135Y2287975D1*
X2264711Y2293266D1*
X2265531Y2293661D1*
X2265270Y2293812D1*
X2257636Y2299018D1*
X2250936Y2305382D1*
X2245343Y2312739D1*
X2241001Y2320896D1*
X2238026Y2329646D1*
X2236492Y2338759D1*
X2236441Y2347999D1*
X2237871Y2357129D1*
X2240748Y2365911D1*
X2244997Y2374117D1*
X2250507Y2381535D1*
X2257135Y2387975D1*
X2264711Y2393266D1*
X2273037Y2397276D1*
X2281899Y2399896D1*
X2291066Y2401062D1*
X2297478Y2400840D1*
X2317003Y2420370D1*
X2319176Y2422379D1*
X3959328Y1481437D2*
X4002605D1*
X3917017Y1567017D1*
X3911373Y1574236D1*
X3907634Y1582602D1*
X3906022Y1591631D1*
X3905965Y1602848D1*
Y2328076D1*
X3478071Y2755963D1*
X3457041Y2755965D1*
X3643982Y2569031D1*
X3870385Y2342629D1*
X3876029Y2335409D1*
X3879768Y2327043D1*
X3881379Y2318014D1*
X3881437Y2306752D1*
Y1559329D1*
X3959335Y1481434D1*
X3940764Y1406080D2*
X3931773Y1407899D1*
X3923495Y1411829D1*
X3917017Y1417017D1*
X3817031Y1517004D1*
X3815016Y1519182D1*
X3809951Y1526819D1*
X3806877Y1535453D1*
X3805965Y1543701D1*
Y2300316D1*
X3400308Y2705970D1*
X3337087Y2705965D1*
X3281442Y2650319D1*
X3281441Y2644844D1*
X3285495Y2641801D1*
X3291915Y2635364D1*
X3293609Y2633093D1*
X3299769Y2639856D1*
X3306785Y2645638D1*
X3314551Y2650364D1*
X3322912Y2653934D1*
X3331696Y2656280D1*
X3340724Y2657352D1*
X3349812Y2657127D1*
X3358777Y2655612D1*
X3367434Y2652836D1*
X3375609Y2648857D1*
X3383134Y2643755D1*
X3389856Y2637633D1*
X3395638Y2630617D1*
X3400364Y2622850D1*
X3403934Y2614490D1*
X3406280Y2605706D1*
X3407352Y2596677D1*
X3407421Y2593701D1*
X3406760Y2584546D1*
X3406663Y2584104D1*
X3770385Y2220385D1*
X3776029Y2213165D1*
X3779768Y2204799D1*
X3781379Y2195770D1*
X3781437Y2184491D1*
Y1143701D1*
X3780324Y1134605D1*
X3777052Y1126046D1*
X3771807Y1118521D1*
X3763903Y1110535D1*
X3431434Y778067D1*
X3431437Y745042D1*
X3437119Y740332D1*
X3443315Y733678D1*
X3443675Y733160D1*
X3449768Y739853D1*
X3455983Y744974D1*
X3456079Y746647D1*
X3457899Y755629D1*
X3461829Y763906D1*
X3467017Y770385D1*
X4055966Y1359333D1*
X4055965Y1392360D1*
X4050282Y1397063D1*
X4044087Y1403717D1*
X4042522Y1405970D1*
X3943726Y1405965D1*
X3940764Y1406080D1*
X769176Y2772379D2*
X776819Y2777450D1*
X785453Y2780525D1*
X793701Y2781437D1*
X1726660D1*
X1729631Y2781322D1*
X1738613Y2779503D1*
X1746891Y2775572D1*
X1753369Y2770385D1*
X1842339Y2681415D1*
X1843734Y2681437D1*
X3028063D1*
X3151844Y2805210D1*
X2907092Y2805217D1*
X432186D1*
X432185Y2335549D1*
X460299Y2363677D1*
X457211Y2371319D1*
X454904Y2380146D1*
X453745Y2389196D1*
X453752Y2398319D1*
X454927Y2407366D1*
X457248Y2416190D1*
X460678Y2424644D1*
X465161Y2432591D1*
X470625Y2439898D1*
X476976Y2446448D1*
X484114Y2452130D1*
X487064Y2453915D1*
X487067Y2474778D1*
X487182Y2477749D1*
X489001Y2486731D1*
X492932Y2495009D1*
X498119Y2501487D1*
X766999Y2770366D1*
X769176Y2772379D1*
X1705963Y1325732D2*
Y1393675D1*
X1706079Y1396646D1*
X1707898Y1405627D1*
X1711828Y1413906D1*
X1717016Y1420383D1*
X1867001Y1570369D1*
X1869182Y1572386D1*
X1876819Y1577450D1*
X1885453Y1580525D1*
X1893701Y1581437D1*
X1950437Y1581441D1*
X1950507Y1581535D1*
X1957135Y1587975D1*
X1964711Y1593266D1*
X1965531Y1593661D1*
X1963193Y1595055D1*
X1960647Y1596747D1*
X1958194Y1598573D1*
X1955844Y1600526D1*
X1953600Y1602602D1*
X1951469Y1604795D1*
X1949458Y1607098D1*
X1947572Y1609504D1*
X1945818Y1612008D1*
X1944199Y1614601D1*
X1942720Y1617277D1*
X1941386Y1620028D1*
X1940201Y1622845D1*
X1939167Y1625723D1*
X1938287Y1628651D1*
X1937564Y1631621D1*
X1937001Y1634626D1*
X1936598Y1637656D1*
X1936358Y1640705D1*
X1936280Y1643760D1*
X1936364Y1646816D1*
X1936612Y1649864D1*
X1937020Y1652894D1*
X1937589Y1655896D1*
X1938319Y1658866D1*
X1939203Y1661793D1*
X1940244Y1664667D1*
X1941436Y1667482D1*
X1942776Y1670230D1*
X1944260Y1672903D1*
X1945883Y1675493D1*
X1947643Y1677993D1*
X1949534Y1680395D1*
X1951550Y1682694D1*
X1953685Y1684882D1*
X1955933Y1686954D1*
X1958289Y1688903D1*
X1960744Y1690723D1*
X1963294Y1692411D1*
X1965510Y1693720D1*
X1965046Y1693940D1*
X1957436Y1699181D1*
X1950764Y1705575D1*
X1945203Y1712957D1*
X1940900Y1721134D1*
X1937963Y1729896D1*
X1936471Y1739016D1*
X1936461Y1748257D1*
X1937933Y1757379D1*
X1940849Y1766148D1*
X1945134Y1774336D1*
X1950677Y1781730D1*
X1957335Y1788139D1*
X1964934Y1793396D1*
X1965513Y1793672D1*
X1965491Y1793709D1*
X1965270Y1793812D1*
X1957636Y1799018D1*
X1950936Y1805382D1*
X1945343Y1812739D1*
X1941001Y1820896D1*
X1938026Y1829646D1*
X1936492Y1838759D1*
X1936441Y1847999D1*
X1937871Y1857129D1*
X1940748Y1865911D1*
X1944997Y1874117D1*
X1950507Y1881535D1*
X1957135Y1887975D1*
X1964711Y1893266D1*
X1965531Y1893661D1*
X1965491Y1893709D1*
X1965270Y1893812D1*
X1957636Y1899018D1*
X1950936Y1905382D1*
X1945343Y1912739D1*
X1941001Y1920896D1*
X1938026Y1929646D1*
X1936492Y1938759D1*
X1936441Y1947999D1*
X1937871Y1957129D1*
X1940748Y1965911D1*
X1944997Y1974117D1*
X1950507Y1981535D1*
X1957135Y1987975D1*
X1964711Y1993266D1*
X1965531Y1993661D1*
X1965491Y1993709D1*
X1965270Y1993812D1*
X1957636Y1999018D1*
X1954135Y2002343D1*
X1693025Y1741230D1*
X1692425Y1734564D1*
X1689986Y1725730D1*
X1686007Y1717472D1*
X1680618Y1710059D1*
X1673993Y1703727D1*
X1666344Y1698678D1*
X1657915Y1695077D1*
X1648979Y1693041D1*
X1639823Y1692631D1*
X1630741Y1693862D1*
X1622025Y1696696D1*
X1613955Y1701041D1*
X1606791Y1706756D1*
X1600762Y1713659D1*
X1596063Y1721528D1*
X1592844Y1730109D1*
X1591209Y1739127D1*
X1591210Y1748293D1*
X1592849Y1757310D1*
X1596071Y1765890D1*
X1600773Y1773757D1*
X1606804Y1780657D1*
X1613970Y1786371D1*
X1622042Y1790713D1*
X1630759Y1793543D1*
X1639832Y1794770D1*
X1915442Y2070385D1*
X1922661Y2076029D1*
X1931028Y2079768D1*
X1940056Y2081379D1*
X1942147Y2081437D1*
X1950437Y2081441D1*
X1950507Y2081535D1*
X1957135Y2087975D1*
X1964711Y2093266D1*
X1965531Y2093661D1*
X1965491Y2093709D1*
X1965270Y2093812D1*
X1957636Y2099018D1*
X1950936Y2105382D1*
X1945343Y2112739D1*
X1941001Y2120896D1*
X1938026Y2129646D1*
X1936492Y2138759D1*
X1936441Y2147999D1*
X1937871Y2157129D1*
X1940748Y2165911D1*
X1944997Y2174117D1*
X1950507Y2181535D1*
X1957135Y2187975D1*
X1964711Y2193266D1*
X1965531Y2193661D1*
X1965491Y2193709D1*
X1965270Y2193812D1*
X1957636Y2199018D1*
X1950936Y2205382D1*
X1945343Y2212739D1*
X1941001Y2220896D1*
X1938026Y2229646D1*
X1936492Y2238759D1*
X1936441Y2247999D1*
X1937871Y2257129D1*
X1940748Y2265911D1*
X1944997Y2274117D1*
X1950507Y2281535D1*
X1955394Y2286283D1*
X1939650Y2286280D1*
X1870385Y2217017D1*
X1863165Y2211373D1*
X1854799Y2207634D1*
X1845770Y2206022D1*
X1835367Y2205965D1*
X1801122Y2205966D1*
Y2186280D1*
X1782199Y2186281D1*
X1783762Y2184837D1*
X1785895Y2182647D1*
X1787908Y2180346D1*
X1789797Y2177941D1*
X1791554Y2175440D1*
X1793175Y2172848D1*
X1794656Y2170173D1*
X1795992Y2167424D1*
X1797181Y2164608D1*
X1798218Y2161731D1*
X1799100Y2158804D1*
X1799825Y2155835D1*
X1800391Y2152829D1*
X1800797Y2149799D1*
X1801041Y2146752D1*
X1801122Y2143701D1*
X1801041Y2140640D1*
X1800797Y2137593D1*
X1800390Y2134563D1*
X1799824Y2131559D1*
X1799097Y2128589D1*
X1798215Y2125661D1*
X1797177Y2122786D1*
X1795988Y2119970D1*
X1794651Y2117220D1*
X1793171Y2114546D1*
X1791549Y2111954D1*
X1789791Y2109453D1*
X1787903Y2107049D1*
X1785890Y2104748D1*
X1783756Y2102558D1*
X1781510Y2100484D1*
X1779156Y2098533D1*
X1776702Y2096710D1*
X1774155Y2095021D1*
X1771520Y2093469D1*
X1768807Y2092059D1*
X1766024Y2090797D1*
X1763176Y2089682D1*
X1760273Y2088723D1*
X1757324Y2087919D1*
X1754336Y2087273D1*
X1751318Y2086787D1*
X1748278Y2086462D1*
X1745224Y2086299D1*
X1742168Y2086301D1*
X1739114Y2086463D1*
X1736075Y2086789D1*
X1733056Y2087274D1*
X1730068Y2087921D1*
X1727119Y2088726D1*
X1724217Y2089686D1*
X1721370Y2090799D1*
X1718585Y2092063D1*
X1715873Y2093472D1*
X1713239Y2095025D1*
X1710692Y2096715D1*
X1708238Y2098539D1*
X1705885Y2100491D1*
X1703639Y2102564D1*
X1701507Y2104755D1*
X1699493Y2107055D1*
X1697605Y2109461D1*
X1695848Y2111962D1*
X1694227Y2114554D1*
X1692745Y2117228D1*
X1691409Y2119978D1*
X1690220Y2122794D1*
X1689184Y2125671D1*
X1688302Y2128597D1*
X1687576Y2131567D1*
X1687010Y2134572D1*
X1686605Y2137602D1*
X1686361Y2140650D1*
X1686280Y2143705D1*
X1686361Y2146761D1*
X1686605Y2149808D1*
X1687012Y2152839D1*
X1687577Y2155843D1*
X1688304Y2158812D1*
X1689186Y2161740D1*
X1690224Y2164615D1*
X1691413Y2167432D1*
X1692751Y2170181D1*
X1694231Y2172856D1*
X1695853Y2175448D1*
X1697610Y2177949D1*
X1699499Y2180353D1*
X1701512Y2182654D1*
X1703646Y2184844D1*
X1705201Y2186280D1*
X1686280D1*
Y2205971D1*
X1486459Y2205965D1*
X1393701D1*
X1384605Y2207077D1*
X1376046Y2210349D1*
X1368521Y2215596D1*
X1360768Y2223268D1*
X1317017Y2267017D1*
X1311373Y2274236D1*
X1307634Y2282602D1*
X1306022Y2291631D1*
X1305965Y2302791D1*
Y2478077D1*
X1278067Y2505969D1*
X1202336Y2505965D1*
X1207724Y2502299D1*
X1214504Y2496240D1*
X1220280Y2489217D1*
X1224915Y2481395D1*
X1228301Y2472957D1*
X1230360Y2464100D1*
X1231043Y2455118D1*
X1230335Y2445969D1*
X1228249Y2437118D1*
X1224839Y2428689D1*
X1220181Y2420881D1*
X1214386Y2413874D1*
X1207589Y2407835D1*
X1199950Y2402903D1*
X1191648Y2399196D1*
X1182878Y2396799D1*
X1173844Y2395769D1*
X1164759Y2396130D1*
X1155835Y2397874D1*
X1147282Y2400959D1*
X1139301Y2405315D1*
X1132076Y2410837D1*
X1125781Y2417398D1*
X1120560Y2424843D1*
X1116538Y2432996D1*
X1113807Y2441669D1*
X1112432Y2450656D1*
X1112445Y2459749D1*
X1113845Y2468734D1*
X1116601Y2477398D1*
X1120647Y2485541D1*
X1125888Y2492970D1*
X1132203Y2499512D1*
X1139442Y2505014D1*
X1141199Y2505966D1*
X1093701Y2505965D1*
X1084605Y2507077D1*
X1076046Y2510349D1*
X1068521Y2515596D1*
X1060690Y2523345D1*
X989484Y2594550D1*
X975144Y2594547D1*
X975138Y2572894D1*
X856358D1*
Y2691673D1*
X975138D1*
Y2670026D1*
X1005118Y2670020D1*
X1014214Y2668907D1*
X1022773Y2665635D1*
X1030298Y2660390D1*
X1038129Y2652639D1*
X1109335Y2581434D1*
X1140963Y2581437D1*
X1139301Y2582480D1*
X1132076Y2588003D1*
X1125781Y2594563D1*
X1120560Y2602008D1*
X1116538Y2610161D1*
X1113807Y2618835D1*
X1112432Y2627822D1*
X1112445Y2636915D1*
X1113845Y2645899D1*
X1116601Y2654563D1*
X1120647Y2662706D1*
X1125888Y2670135D1*
X1132203Y2676677D1*
X1139442Y2682180D1*
X1147437Y2686512D1*
X1155999Y2689572D1*
X1164927Y2691291D1*
X1174013Y2691626D1*
X1183045Y2690571D1*
X1191808Y2688148D1*
X1200100Y2684417D1*
X1207724Y2679465D1*
X1214504Y2673406D1*
X1220280Y2666382D1*
X1224915Y2658560D1*
X1228301Y2650122D1*
X1230360Y2641265D1*
X1231043Y2632283D1*
X1230335Y2623134D1*
X1228249Y2614283D1*
X1224839Y2605854D1*
X1220181Y2598046D1*
X1214386Y2591039D1*
X1207589Y2585000D1*
X1202076Y2581441D1*
X1293680Y2581437D1*
X1296647Y2581322D1*
X1305629Y2579503D1*
X1313907Y2575572D1*
X1320385Y2570385D1*
X1370370Y2520399D1*
X1372386Y2518219D1*
X1377450Y2510583D1*
X1380525Y2501949D1*
X1381437Y2493701D1*
Y2309324D1*
X1409335Y2281433D1*
X1686280Y2281436D1*
Y2301122D1*
X1801122D1*
Y2281430D1*
X1828064Y2281437D1*
X1917004Y2370370D1*
X1919182Y2372386D1*
X1926819Y2377450D1*
X1935461Y2380525D1*
X1936280Y2380699D1*
Y2401122D1*
X1997759D1*
X2005969Y2409335D1*
X2005962Y2509811D1*
X2002475Y2513808D1*
X1997799Y2521651D1*
X1994598Y2530201D1*
X1992976Y2539185D1*
X1992984Y2548315D1*
X1994622Y2557297D1*
X1997839Y2565841D1*
X2002528Y2573675D1*
X2008541Y2580546D1*
X2015684Y2586231D1*
X2023727Y2590551D1*
X2032412Y2593365D1*
X2041461Y2594583D1*
X2050580Y2594164D1*
X2059479Y2592126D1*
X2067871Y2588530D1*
X2075487Y2583493D1*
X2082080Y2577178D1*
X2087440Y2569787D1*
X2091394Y2561559D1*
X2093815Y2552756D1*
X2094626Y2543706D1*
X2093799Y2534570D1*
X2091364Y2525772D1*
X2087395Y2517549D1*
X2082022Y2510167D1*
X2081434Y2509608D1*
X2081437Y2393726D1*
X2081322Y2390755D1*
X2079503Y2381773D1*
X2075572Y2373495D1*
X2070385Y2367017D1*
X2051122Y2347753D1*
Y2286280D1*
X2032220D1*
X2035694Y2282865D1*
X2041432Y2275621D1*
X2045934Y2267551D1*
X2049084Y2258864D1*
X2050799Y2249783D1*
X2051122Y2243701D1*
X2050388Y2234554D1*
X2048188Y2225579D1*
X2044575Y2217073D1*
X2039644Y2209257D1*
X2033525Y2202333D1*
X2026373Y2196480D1*
X2021757Y2193808D1*
X2028867Y2189093D1*
X2035694Y2182865D1*
X2041432Y2175621D1*
X2045934Y2167551D1*
X2049084Y2158864D1*
X2050799Y2149783D1*
X2051122Y2143701D1*
X2050388Y2134554D1*
X2048188Y2125579D1*
X2044575Y2117073D1*
X2039644Y2109257D1*
X2033525Y2102333D1*
X2026373Y2096480D1*
X2021757Y2093808D1*
X2028867Y2089093D1*
X2035694Y2082865D1*
X2041432Y2075621D1*
X2045934Y2067551D1*
X2049084Y2058864D1*
X2050799Y2049783D1*
X2051122Y2043701D1*
X2050388Y2034554D1*
X2048188Y2025579D1*
X2044575Y2017073D1*
X2039644Y2009257D1*
X2033525Y2002333D1*
X2026373Y1996480D1*
X2021757Y1993808D1*
X2028867Y1989093D1*
X2035694Y1982865D1*
X2041432Y1975621D1*
X2045934Y1967551D1*
X2049084Y1958864D1*
X2050799Y1949783D1*
X2051122Y1943701D1*
X2050388Y1934554D1*
X2048188Y1925579D1*
X2044575Y1917073D1*
X2039644Y1909257D1*
X2033525Y1902333D1*
X2026373Y1896480D1*
X2021757Y1893808D1*
X2028867Y1889093D1*
X2035694Y1882865D1*
X2041432Y1875621D1*
X2045934Y1867551D1*
X2049084Y1858864D1*
X2050799Y1849783D1*
X2051122Y1843701D1*
X2050388Y1834554D1*
X2048188Y1825579D1*
X2044575Y1817073D1*
X2039644Y1809257D1*
X2033525Y1802333D1*
X2026373Y1796480D1*
X2021757Y1793808D1*
X2029072Y1788934D1*
X2035870Y1782675D1*
X2036845Y1781433D1*
X2043701Y1781437D1*
X2052797Y1780324D1*
X2061356Y1777052D1*
X2068881Y1771807D1*
X2076978Y1763790D1*
X2085092Y1755677D1*
X2085091Y2422802D1*
X2085206Y2425773D1*
X2087025Y2434755D1*
X2090955Y2443033D1*
X2096143Y2449510D1*
X2252598Y2605965D1*
X1859344D1*
X1794383Y2541009D1*
X1793799Y2534559D1*
X1791364Y2525760D1*
X1787395Y2517538D1*
X1782022Y2510156D1*
X1775417Y2503853D1*
X1767794Y2498829D1*
X1759395Y2495249D1*
X1750492Y2493224D1*
X1746423Y2493046D1*
X1620466Y2367093D1*
X1618226Y2365016D1*
X1610588Y2359951D1*
X1601948Y2356877D1*
X1601122Y2356702D1*
Y2336280D1*
X1486280D1*
X1486281Y2355196D1*
X1485890Y2354748D1*
X1483756Y2352558D1*
X1481510Y2350484D1*
X1479156Y2348533D1*
X1476702Y2346710D1*
X1474155Y2345021D1*
X1471520Y2343469D1*
X1468807Y2342059D1*
X1466024Y2340797D1*
X1463176Y2339682D1*
X1460273Y2338723D1*
X1457324Y2337919D1*
X1454336Y2337273D1*
X1451318Y2336787D1*
X1448278Y2336462D1*
X1445224Y2336299D1*
X1442168Y2336301D1*
X1439114Y2336463D1*
X1436075Y2336789D1*
X1433056Y2337274D1*
X1430068Y2337921D1*
X1427119Y2338726D1*
X1424217Y2339686D1*
X1421370Y2340799D1*
X1418585Y2342063D1*
X1415873Y2343472D1*
X1413239Y2345025D1*
X1410692Y2346715D1*
X1408238Y2348539D1*
X1405885Y2350491D1*
X1403639Y2352564D1*
X1401507Y2354755D1*
X1399493Y2357055D1*
X1397605Y2359461D1*
X1395848Y2361962D1*
X1394227Y2364554D1*
X1392745Y2367228D1*
X1391409Y2369978D1*
X1390220Y2372794D1*
X1389184Y2375671D1*
X1388302Y2378597D1*
X1387576Y2381567D1*
X1387010Y2384572D1*
X1386605Y2387602D1*
X1386361Y2390650D1*
X1386280Y2393705D1*
X1386361Y2396761D1*
X1386605Y2399808D1*
X1387012Y2402839D1*
X1387577Y2405843D1*
X1388304Y2408812D1*
X1389186Y2411740D1*
X1390224Y2414615D1*
X1391413Y2417432D1*
X1392751Y2420181D1*
X1394231Y2422856D1*
X1395853Y2425448D1*
X1397610Y2427949D1*
X1399499Y2430353D1*
X1401512Y2432654D1*
X1403646Y2434844D1*
X1405891Y2436917D1*
X1408245Y2438869D1*
X1410699Y2440692D1*
X1413247Y2442381D1*
X1415882Y2443933D1*
X1418594Y2445343D1*
X1421378Y2446605D1*
X1424226Y2447719D1*
X1427129Y2448678D1*
X1430077Y2449483D1*
X1433066Y2450129D1*
X1436084Y2450614D1*
X1439123Y2450940D1*
X1442177Y2451102D1*
X1445234Y2451101D1*
X1448287Y2450938D1*
X1451327Y2450613D1*
X1454345Y2450127D1*
X1457333Y2449480D1*
X1460282Y2448676D1*
X1463185Y2447715D1*
X1466031Y2446602D1*
X1468816Y2445339D1*
X1471529Y2443929D1*
X1474163Y2442377D1*
X1476710Y2440686D1*
X1479164Y2438862D1*
X1481517Y2436911D1*
X1483762Y2434837D1*
X1485895Y2432647D1*
X1486280Y2432209D1*
Y2451122D1*
X1597762D1*
X1692841Y2546202D1*
X1692984Y2548304D1*
X1694622Y2557286D1*
X1697839Y2565831D1*
X1702528Y2573664D1*
X1708541Y2580534D1*
X1715684Y2586220D1*
X1723727Y2590539D1*
X1732412Y2593353D1*
X1741169Y2594531D1*
X1781831Y2635192D1*
X1711055Y2705963D1*
X809336Y2705965D1*
X562545Y2459178D1*
X562543Y2454012D1*
X569240Y2449332D1*
X575990Y2443193D1*
X581898Y2436241D1*
X586869Y2428591D1*
X590822Y2420367D1*
X591396Y2418634D1*
X591398Y2464902D1*
X733799D1*
Y2322500D1*
X591398D1*
Y2368507D1*
X590780Y2366929D1*
X586814Y2358713D1*
X581831Y2351070D1*
X575911Y2344127D1*
X569152Y2337999D1*
X561665Y2332785D1*
X553572Y2328571D1*
X545008Y2325427D1*
X536112Y2323404D1*
X527029Y2322535D1*
X525933Y2322571D1*
X481440Y2278072D1*
X481436Y2047109D1*
X481785Y2047753D1*
X483354Y2050385D1*
X485035Y2052946D1*
X486825Y2055433D1*
X488722Y2057840D1*
X490719Y2060164D1*
X492814Y2062399D1*
X495004Y2064542D1*
X497283Y2066589D1*
X499650Y2068535D1*
X502097Y2070379D1*
X504621Y2072115D1*
X507218Y2073741D1*
X509882Y2075255D1*
X512609Y2076652D1*
X515394Y2077930D1*
X518231Y2079088D1*
X521114Y2080122D1*
X524041Y2081031D1*
X527003Y2081814D1*
X529996Y2082467D1*
X533014Y2082992D1*
X536052Y2083387D1*
X539106Y2083651D1*
X542167Y2083782D1*
X545231D1*
X548291Y2083651D1*
X551344Y2083387D1*
X554383Y2082993D1*
X557402Y2082469D1*
X560395Y2081815D1*
X563357Y2081033D1*
X566283Y2080123D1*
X569167Y2079089D1*
X572004Y2077932D1*
X574789Y2076654D1*
X577516Y2075257D1*
X580180Y2073744D1*
X582777Y2072118D1*
X585302Y2070382D1*
X587749Y2068538D1*
X590115Y2066592D1*
X592395Y2064545D1*
X594585Y2062402D1*
X596680Y2060167D1*
X598677Y2057844D1*
X600573Y2055436D1*
X602364Y2052950D1*
X604046Y2050388D1*
X605615Y2047757D1*
X607071Y2045062D1*
X608408Y2042304D1*
X609626Y2039493D1*
X610723Y2036633D1*
X611694Y2033727D1*
X612541Y2030782D1*
X613259Y2027803D1*
X613849Y2024797D1*
X614308Y2021768D1*
X614638Y2018722D1*
X614836Y2015664D1*
X614902Y2012598D1*
X614836Y2009537D1*
X614638Y2006480D1*
X614310Y2003433D1*
X613849Y2000404D1*
X613260Y1997398D1*
X612542Y1994419D1*
X611696Y1991474D1*
X610724Y1988568D1*
X609629Y1985707D1*
X608411Y1982896D1*
X607072Y1980139D1*
X605617Y1977444D1*
X604047Y1974812D1*
X602366Y1972251D1*
X600576Y1969764D1*
X598680Y1967357D1*
X596682Y1965033D1*
X594588Y1962798D1*
X592398Y1960655D1*
X590118Y1958608D1*
X587752Y1956661D1*
X585304Y1954818D1*
X582781Y1953081D1*
X580184Y1951455D1*
X577520Y1949942D1*
X574793Y1948545D1*
X572008Y1947266D1*
X568875Y1946003D1*
X614902Y1946004D1*
Y1881440D1*
X908007Y1881437D1*
X907634Y1882602D1*
X906022Y1891631D1*
X905965Y1902630D1*
Y2080373D1*
X880374Y2080374D1*
Y2207028D1*
X1007028D1*
Y2195320D1*
X1009025Y2196690D1*
X1011626Y2198304D1*
X1014302Y2199790D1*
X1017046Y2201144D1*
X1019852Y2202365D1*
X1022714Y2203449D1*
X1025626Y2204394D1*
X1028579Y2205196D1*
X1031567Y2205854D1*
X1034584Y2206367D1*
X1037623Y2206735D1*
X1040676Y2206955D1*
X1043735Y2207028D1*
X1046794Y2206951D1*
X1049846Y2206728D1*
X1052885Y2206358D1*
X1055902Y2205841D1*
X1058888Y2205180D1*
X1061841Y2204374D1*
X1064752Y2203427D1*
X1067613Y2202340D1*
X1070417Y2201115D1*
X1073160Y2199759D1*
X1075835Y2198269D1*
X1078433Y2196654D1*
X1080951Y2194913D1*
X1083382Y2193054D1*
X1085719Y2191079D1*
X1087959Y2188993D1*
X1090096Y2186802D1*
X1092125Y2184510D1*
X1093694Y2182555D1*
X1099699Y2189243D1*
X1106799Y2195165D1*
X1114685Y2199990D1*
X1123190Y2203614D1*
X1132133Y2205962D1*
X1141322Y2206983D1*
X1150560Y2206655D1*
X1159654Y2204986D1*
X1168407Y2202009D1*
X1176633Y2197791D1*
X1184157Y2192420D1*
X1190820Y2186009D1*
X1196478Y2178698D1*
X1201012Y2170640D1*
X1204323Y2162009D1*
X1206343Y2152987D1*
X1207028Y2143701D1*
X1206362Y2134547D1*
X1204362Y2125521D1*
X1201068Y2116882D1*
X1196552Y2108815D1*
X1190909Y2101492D1*
X1184261Y2095068D1*
X1181436Y2093042D1*
X1181437Y1959324D1*
X1220370Y1920399D1*
X1222386Y1918219D1*
X1227450Y1910583D1*
X1230525Y1901950D1*
X1231437Y1893701D1*
Y1743726D1*
X1231322Y1740755D1*
X1229503Y1731773D1*
X1225572Y1723495D1*
X1220385Y1717017D1*
X1103610Y1600245D1*
X1104345Y1600127D1*
X1107333Y1599480D1*
X1110282Y1598676D1*
X1113185Y1597715D1*
X1116031Y1596602D1*
X1118816Y1595339D1*
X1121529Y1593929D1*
X1124163Y1592377D1*
X1126710Y1590686D1*
X1129164Y1588862D1*
X1131517Y1586911D1*
X1133762Y1584837D1*
X1135895Y1582647D1*
X1137908Y1580346D1*
X1139797Y1577941D1*
X1141554Y1575440D1*
X1143175Y1572848D1*
X1144656Y1570173D1*
X1145992Y1567424D1*
X1147181Y1564608D1*
X1148218Y1561731D1*
X1149100Y1558804D1*
X1149825Y1555835D1*
X1150391Y1552829D1*
X1150797Y1549799D1*
X1151041Y1546752D1*
X1151122Y1543701D1*
X1151041Y1540640D1*
X1150797Y1537593D1*
X1150390Y1534563D1*
X1149824Y1531559D1*
X1149097Y1528589D1*
X1148215Y1525661D1*
X1147177Y1522786D1*
X1145988Y1519970D1*
X1144651Y1517220D1*
X1143171Y1514546D1*
X1141549Y1511954D1*
X1139791Y1509453D1*
X1137903Y1507049D1*
X1135890Y1504748D1*
X1133756Y1502558D1*
X1131510Y1500484D1*
X1129156Y1498533D1*
X1126702Y1496710D1*
X1124155Y1495021D1*
X1121520Y1493469D1*
X1118807Y1492059D1*
X1116024Y1490797D1*
X1113176Y1489682D1*
X1110273Y1488723D1*
X1107324Y1487919D1*
X1104336Y1487273D1*
X1101318Y1486787D1*
X1098278Y1486462D1*
X1095224Y1486299D1*
X1092168Y1486301D1*
X1089114Y1486463D1*
X1086075Y1486789D1*
X1083056Y1487274D1*
X1080068Y1487921D1*
X1077119Y1488726D1*
X1074217Y1489686D1*
X1071370Y1490799D1*
X1068585Y1492063D1*
X1065873Y1493472D1*
X1063239Y1495025D1*
X1060692Y1496715D1*
X1058238Y1498539D1*
X1055885Y1500491D1*
X1053639Y1502564D1*
X1051507Y1504755D1*
X1051122Y1505193D1*
Y1486280D1*
X1031430D1*
X1031437Y1301118D1*
X1051122Y1301122D1*
X1051121Y1282206D1*
X1051512Y1282654D1*
X1053646Y1284844D1*
X1055891Y1286917D1*
X1058245Y1288869D1*
X1060699Y1290692D1*
X1063247Y1292381D1*
X1065882Y1293933D1*
X1068594Y1295343D1*
X1071378Y1296605D1*
X1074226Y1297719D1*
X1077129Y1298678D1*
X1080077Y1299483D1*
X1083066Y1300129D1*
X1086084Y1300614D1*
X1089123Y1300940D1*
X1092177Y1301102D1*
X1095234Y1301101D1*
X1098287Y1300938D1*
X1101327Y1300613D1*
X1104345Y1300127D1*
X1107333Y1299480D1*
X1110282Y1298676D1*
X1113185Y1297715D1*
X1116031Y1296602D1*
X1118816Y1295339D1*
X1121529Y1293929D1*
X1124163Y1292377D1*
X1126710Y1290686D1*
X1129164Y1288862D1*
X1131517Y1286911D1*
X1133762Y1284837D1*
X1135895Y1282647D1*
X1137908Y1280346D1*
X1139797Y1277941D1*
X1141554Y1275440D1*
X1143175Y1272848D1*
X1144656Y1270173D1*
X1145992Y1267424D1*
X1147181Y1264608D1*
X1148218Y1261731D1*
X1149100Y1258804D1*
X1149825Y1255835D1*
X1150391Y1252829D1*
X1150797Y1249799D1*
X1151041Y1246752D1*
X1151122Y1243701D1*
X1151041Y1240640D1*
X1150797Y1237593D1*
X1150390Y1234563D1*
X1149824Y1231559D1*
X1149097Y1228589D1*
X1148215Y1225661D1*
X1147177Y1222786D1*
X1145988Y1219970D1*
X1144651Y1217220D1*
X1143171Y1214546D1*
X1141549Y1211954D1*
X1139791Y1209453D1*
X1137903Y1207049D1*
X1135890Y1204748D1*
X1133756Y1202558D1*
X1131510Y1200484D1*
X1129156Y1198533D1*
X1126702Y1196710D1*
X1124155Y1195021D1*
X1121520Y1193469D1*
X1118807Y1192059D1*
X1116024Y1190797D1*
X1113176Y1189682D1*
X1110273Y1188723D1*
X1107324Y1187919D1*
X1104336Y1187273D1*
X1101318Y1186787D1*
X1098278Y1186462D1*
X1095224Y1186299D1*
X1092168Y1186301D1*
X1089114Y1186463D1*
X1086075Y1186789D1*
X1083056Y1187274D1*
X1080068Y1187921D1*
X1077119Y1188726D1*
X1074217Y1189686D1*
X1071370Y1190799D1*
X1068585Y1192063D1*
X1065873Y1193472D1*
X1063239Y1195025D1*
X1060692Y1196715D1*
X1058238Y1198539D1*
X1055885Y1200491D1*
X1053639Y1202564D1*
X1051507Y1204755D1*
X1051122Y1205193D1*
Y1186280D1*
X1031430D1*
X1031437Y1001118D1*
X1051122Y1001122D1*
X1051121Y982206D1*
X1051512Y982654D1*
X1053646Y984844D1*
X1055891Y986917D1*
X1058245Y988869D1*
X1060699Y990692D1*
X1063247Y992381D1*
X1065882Y993933D1*
X1068594Y995343D1*
X1071378Y996605D1*
X1074226Y997719D1*
X1077129Y998678D1*
X1080077Y999483D1*
X1083066Y1000129D1*
X1086084Y1000614D1*
X1089123Y1000940D1*
X1092177Y1001102D1*
X1095234Y1001101D1*
X1098287Y1000938D1*
X1101327Y1000613D1*
X1104345Y1000127D1*
X1107333Y999480D1*
X1110282Y998676D1*
X1113185Y997715D1*
X1116031Y996602D1*
X1118816Y995339D1*
X1121529Y993929D1*
X1124163Y992377D1*
X1126710Y990686D1*
X1129164Y988862D1*
X1131517Y986911D1*
X1133762Y984837D1*
X1135895Y982647D1*
X1137908Y980346D1*
X1139797Y977941D1*
X1141554Y975440D1*
X1143175Y972848D1*
X1144656Y970173D1*
X1145992Y967424D1*
X1147181Y964608D1*
X1148218Y961731D1*
X1149100Y958804D1*
X1149825Y955835D1*
X1150391Y952829D1*
X1150797Y949799D1*
X1151041Y946752D1*
X1151122Y943701D1*
X1151041Y940640D1*
X1150797Y937593D1*
X1150390Y934563D1*
X1149824Y931559D1*
X1149097Y928589D1*
X1148215Y925661D1*
X1147177Y922786D1*
X1145988Y919970D1*
X1144651Y917220D1*
X1143171Y914546D1*
X1141549Y911954D1*
X1139791Y909453D1*
X1137903Y907049D1*
X1135890Y904748D1*
X1133756Y902558D1*
X1131510Y900484D1*
X1129156Y898533D1*
X1126702Y896710D1*
X1124155Y895021D1*
X1121520Y893469D1*
X1118807Y892059D1*
X1116024Y890797D1*
X1113176Y889682D1*
X1110273Y888723D1*
X1107324Y887919D1*
X1104336Y887273D1*
X1101318Y886787D1*
X1098278Y886462D1*
X1095224Y886299D1*
X1092168Y886301D1*
X1089114Y886463D1*
X1086075Y886789D1*
X1083056Y887274D1*
X1080068Y887921D1*
X1077119Y888726D1*
X1074217Y889686D1*
X1071370Y890799D1*
X1068585Y892063D1*
X1065873Y893472D1*
X1063239Y895025D1*
X1060692Y896715D1*
X1058238Y898539D1*
X1055885Y900491D1*
X1053639Y902564D1*
X1051507Y904755D1*
X1051122Y905193D1*
Y886280D1*
X1031430D1*
X1031436Y751119D1*
X1051122D1*
X1051121Y732209D1*
X1051512Y732656D1*
X1053646Y734846D1*
X1055891Y736920D1*
X1058245Y738870D1*
X1060699Y740694D1*
X1063247Y742383D1*
X1065882Y743936D1*
X1068594Y745345D1*
X1071378Y746608D1*
X1074226Y747720D1*
X1077129Y748681D1*
X1080077Y749484D1*
X1083066Y750131D1*
X1086084Y750617D1*
X1089123Y750941D1*
X1092177Y751104D1*
X1095234D1*
X1098287Y750941D1*
X1101327Y750615D1*
X1104345Y750129D1*
X1107333Y749483D1*
X1110282Y748678D1*
X1113185Y747718D1*
X1116031Y746604D1*
X1118816Y745341D1*
X1121529Y743930D1*
X1124163Y742378D1*
X1126710Y740689D1*
X1129164Y738865D1*
X1131517Y736913D1*
X1133762Y734840D1*
X1135895Y732650D1*
X1137908Y730348D1*
X1139797Y727944D1*
X1141554Y725442D1*
X1143175Y722850D1*
X1144656Y720176D1*
X1145992Y717427D1*
X1147181Y714609D1*
X1148218Y711734D1*
X1149100Y708806D1*
X1149825Y705836D1*
X1150391Y702832D1*
X1150797Y699802D1*
X1151041Y696755D1*
X1151122Y693703D1*
X1151041Y690642D1*
X1150797Y687594D1*
X1150390Y684564D1*
X1149824Y681560D1*
X1149097Y678591D1*
X1148215Y675664D1*
X1147177Y672789D1*
X1145988Y669971D1*
X1144651Y667222D1*
X1143171Y664549D1*
X1141549Y661957D1*
X1139791Y659455D1*
X1137903Y657051D1*
X1135890Y654751D1*
X1133756Y652560D1*
X1131510Y650487D1*
X1129156Y648535D1*
X1126702Y646713D1*
X1124155Y645022D1*
X1121520Y643471D1*
X1118807Y642062D1*
X1116024Y640798D1*
X1113176Y639685D1*
X1110273Y638726D1*
X1107324Y637921D1*
X1104336Y637276D1*
X1101318Y636789D1*
X1098278Y636465D1*
X1095224Y636302D1*
X1092168D1*
X1089114Y636465D1*
X1086075Y636790D1*
X1083056Y637277D1*
X1080068Y637924D1*
X1077119Y638728D1*
X1074217Y639689D1*
X1071370Y640802D1*
X1068585Y642066D1*
X1065873Y643475D1*
X1063239Y645028D1*
X1060692Y646718D1*
X1058238Y648541D1*
X1055885Y650492D1*
X1053639Y652567D1*
X1051507Y654757D1*
X1051122Y655196D1*
Y639647D1*
X1059335Y631433D1*
X1128064Y631437D1*
X1367017Y870385D1*
X1374236Y876029D1*
X1382602Y879768D1*
X1391631Y881379D1*
X1403076Y881437D1*
X1543701D1*
X1552797Y880324D1*
X1561356Y877052D1*
X1568881Y871806D1*
X1576634Y864134D1*
X1670385Y770385D1*
X1676029Y763165D1*
X1679768Y754799D1*
X1681379Y745770D1*
X1687627Y739861D1*
X1693749Y733140D1*
X1698853Y725615D1*
X1702833Y717442D1*
X1705610Y708785D1*
X1707127Y699822D1*
X1707421Y693701D1*
X1706760Y684546D1*
X1704815Y675665D1*
X1701627Y667151D1*
X1697259Y659177D1*
X1691801Y651907D1*
X1685364Y645487D1*
X1678077Y640049D1*
X1670092Y635702D1*
X1668409Y634966D1*
X1666706Y634278D1*
X1664983Y633639D1*
X1663243Y633051D1*
X1661486Y632513D1*
X1659714Y632025D1*
X1657219Y631437D1*
X1958009D1*
X1980307Y653734D1*
X1941192Y692843D1*
X1932325Y694062D1*
X1923646Y696891D1*
X1915609Y701224D1*
X1908476Y706923D1*
X1902475Y713803D1*
X1897799Y721646D1*
X1894598Y730196D1*
X1892976Y739180D1*
X1892984Y748310D1*
X1894622Y757291D1*
X1897839Y765836D1*
X1902528Y773669D1*
X1908541Y780539D1*
X1915684Y786226D1*
X1923727Y790546D1*
X1932412Y793360D1*
X1941461Y794576D1*
X1950580Y794159D1*
X1959479Y792119D1*
X1967871Y788525D1*
X1975487Y783488D1*
X1982080Y777173D1*
X1987440Y769782D1*
X1991394Y761554D1*
X1993815Y752751D1*
X1994386Y746378D1*
X2059332Y681436D1*
X2578077Y681437D1*
X2748980Y852348D1*
X2805965Y909332D1*
Y1328063D1*
X2583256Y1550778D1*
X2332581Y1801454D1*
X2326373Y1796480D1*
X2321757Y1793808D1*
X2324256Y1792318D1*
X2326799Y1790623D1*
X2329249Y1788795D1*
X2331600Y1786839D1*
X2333841Y1784761D1*
X2335970Y1782566D1*
X2337979Y1780261D1*
X2339862Y1777853D1*
X2341614Y1775348D1*
X2343231Y1772753D1*
X2344706Y1770076D1*
X2346038Y1767323D1*
X2347220Y1764504D1*
X2348252Y1761626D1*
X2349129Y1758698D1*
X2349849Y1755727D1*
X2350409Y1752722D1*
X2350808Y1749690D1*
X2351047Y1746642D1*
X2351122Y1743701D1*
X2351041Y1740640D1*
X2350797Y1737593D1*
X2350390Y1734563D1*
X2349824Y1731559D1*
X2349097Y1728589D1*
X2348215Y1725661D1*
X2347177Y1722786D1*
X2345988Y1719970D1*
X2344651Y1717220D1*
X2343171Y1714546D1*
X2341549Y1711954D1*
X2339791Y1709453D1*
X2337903Y1707049D1*
X2335890Y1704748D1*
X2333756Y1702558D1*
X2331510Y1700484D1*
X2329156Y1698533D1*
X2326702Y1696710D1*
X2324155Y1695021D1*
X2321924Y1693706D1*
X2326054Y1691140D1*
X2333244Y1685336D1*
X2339411Y1678454D1*
X2344394Y1670672D1*
X2348064Y1662190D1*
X2350325Y1653231D1*
X2351121Y1644024D1*
X2351122Y1643701D1*
X2350388Y1634554D1*
X2348188Y1625579D1*
X2344575Y1617073D1*
X2339644Y1609257D1*
X2333525Y1602333D1*
X2326373Y1596480D1*
X2321757Y1593808D1*
X2328867Y1589093D1*
X2335694Y1582865D1*
X2341432Y1575621D1*
X2345934Y1567551D1*
X2349084Y1558864D1*
X2350799Y1549783D1*
X2351122Y1543701D1*
X2350388Y1534554D1*
X2348188Y1525579D1*
X2344575Y1517073D1*
X2339644Y1509257D1*
X2333525Y1502333D1*
X2326373Y1496480D1*
X2321757Y1493808D1*
X2328867Y1489093D1*
X2335694Y1482865D1*
X2341432Y1475621D1*
X2345934Y1467551D1*
X2349084Y1458864D1*
X2350799Y1449783D1*
X2351122Y1443701D1*
X2350388Y1434554D1*
X2348188Y1425579D1*
X2344575Y1417073D1*
X2339644Y1409257D1*
X2333525Y1402333D1*
X2326373Y1396480D1*
X2321757Y1393808D1*
X2328867Y1389093D1*
X2335694Y1382865D1*
X2341432Y1375621D1*
X2345934Y1367551D1*
X2349084Y1358864D1*
X2350799Y1349783D1*
X2351122Y1343701D1*
X2350388Y1334554D1*
X2348188Y1325579D1*
X2344575Y1317073D1*
X2339644Y1309257D1*
X2333525Y1302333D1*
X2326373Y1296480D1*
X2321757Y1293808D1*
X2328867Y1289093D1*
X2335694Y1282865D1*
X2341432Y1275621D1*
X2345934Y1267551D1*
X2349084Y1258864D1*
X2350799Y1249783D1*
X2351122Y1243701D1*
X2350388Y1234554D1*
X2348188Y1225579D1*
X2344575Y1217073D1*
X2339644Y1209257D1*
X2333525Y1202333D1*
X2326373Y1196480D1*
X2321757Y1193808D1*
X2328867Y1189093D1*
X2335694Y1182865D1*
X2341432Y1175621D1*
X2345934Y1167551D1*
X2349084Y1158864D1*
X2350799Y1149783D1*
X2351122Y1143701D1*
X2350388Y1134554D1*
X2348188Y1125579D1*
X2344575Y1117073D1*
X2339644Y1109257D1*
X2333525Y1102333D1*
X2326373Y1096480D1*
X2321757Y1093808D1*
X2329072Y1088934D1*
X2335870Y1082675D1*
X2341576Y1075406D1*
X2346042Y1067316D1*
X2349152Y1058614D1*
X2350825Y1049526D1*
X2351122Y1043701D1*
X2350388Y1034554D1*
X2348188Y1025579D1*
X2344575Y1017073D1*
X2339644Y1009257D1*
X2333525Y1002333D1*
X2326373Y996480D1*
X2318375Y991852D1*
X2309739Y988564D1*
X2300686Y986706D1*
X2291453Y986324D1*
X2282278Y987427D1*
X2273399Y989988D1*
X2265046Y993940D1*
X2257436Y999181D1*
X2250764Y1005575D1*
X2245203Y1012957D1*
X2240900Y1021134D1*
X2237963Y1029896D1*
X2236471Y1039016D1*
X2236461Y1048257D1*
X2237933Y1057379D1*
X2240849Y1066148D1*
X2245134Y1074336D1*
X2250677Y1081730D1*
X2257335Y1088139D1*
X2264934Y1093396D1*
X2265513Y1093672D1*
X2265270Y1093812D1*
X2257636Y1099018D1*
X2250936Y1105382D1*
X2245343Y1112739D1*
X2241001Y1120896D1*
X2238026Y1129646D1*
X2236492Y1138759D1*
X2236441Y1147999D1*
X2237871Y1157129D1*
X2240748Y1165911D1*
X2244997Y1174117D1*
X2250507Y1181535D1*
X2257135Y1187975D1*
X2264711Y1193266D1*
X2265531Y1193661D1*
X2265270Y1193812D1*
X2257636Y1199018D1*
X2250936Y1205382D1*
X2245343Y1212739D1*
X2241001Y1220896D1*
X2238026Y1229646D1*
X2236492Y1238759D1*
X2236441Y1247999D1*
X2237871Y1257129D1*
X2240748Y1265911D1*
X2244997Y1274117D1*
X2250507Y1281535D1*
X2257135Y1287975D1*
X2264711Y1293266D1*
X2265531Y1293661D1*
X2265270Y1293812D1*
X2257636Y1299018D1*
X2250936Y1305382D1*
X2245343Y1312739D1*
X2241001Y1320896D1*
X2238026Y1329646D1*
X2236492Y1338759D1*
X2236441Y1347999D1*
X2237871Y1357129D1*
X2240748Y1365911D1*
X2244997Y1374117D1*
X2250507Y1381535D1*
X2257135Y1387975D1*
X2264711Y1393266D1*
X2265531Y1393661D1*
X2265270Y1393812D1*
X2257636Y1399018D1*
X2250936Y1405382D1*
X2245343Y1412739D1*
X2241001Y1420896D1*
X2238026Y1429646D1*
X2236492Y1438759D1*
X2236441Y1447999D1*
X2237871Y1457129D1*
X2240748Y1465911D1*
X2244997Y1474117D1*
X2250507Y1481535D1*
X2257135Y1487975D1*
X2264711Y1493266D1*
X2265531Y1493661D1*
X2265270Y1493812D1*
X2257636Y1499018D1*
X2250936Y1505382D1*
X2250493Y1505965D1*
X2243724D1*
X2240755Y1506080D1*
X2231773Y1507899D1*
X2223495Y1511829D1*
X2217017Y1517017D1*
X2032526Y1701516D1*
X2026373Y1696480D1*
X2021757Y1693808D1*
X2024256Y1692318D1*
X2026799Y1690623D1*
X2029249Y1688795D1*
X2031600Y1686839D1*
X2033841Y1684761D1*
X2035970Y1682566D1*
X2037979Y1680261D1*
X2039862Y1677853D1*
X2041614Y1675348D1*
X2043231Y1672753D1*
X2044706Y1670076D1*
X2046038Y1667323D1*
X2047220Y1664504D1*
X2048252Y1661626D1*
X2049129Y1658698D1*
X2049849Y1655727D1*
X2050409Y1652722D1*
X2050808Y1649690D1*
X2051047Y1646642D1*
X2051122Y1643701D1*
X2051041Y1640640D1*
X2050797Y1637593D1*
X2050390Y1634563D1*
X2049824Y1631559D1*
X2049097Y1628589D1*
X2048215Y1625661D1*
X2047177Y1622786D1*
X2045988Y1619970D1*
X2044651Y1617220D1*
X2043171Y1614546D1*
X2041549Y1611954D1*
X2039791Y1609453D1*
X2037903Y1607049D1*
X2035890Y1604748D1*
X2033756Y1602558D1*
X2031510Y1600484D1*
X2029156Y1598533D1*
X2026702Y1596710D1*
X2024155Y1595021D1*
X2021924Y1593706D1*
X2026054Y1591140D1*
X2033244Y1585336D1*
X2039411Y1578454D1*
X2044394Y1570672D1*
X2048064Y1562190D1*
X2050325Y1553231D1*
X2051121Y1544024D1*
X2051122Y1543701D1*
X2050388Y1534554D1*
X2048188Y1525579D1*
X2044575Y1517073D1*
X2039644Y1509257D1*
X2033525Y1502333D1*
X2026373Y1496480D1*
X2021757Y1493808D1*
X2028867Y1489093D1*
X2035694Y1482865D1*
X2036820Y1481442D1*
X2043677Y1481437D1*
X2046647Y1481322D1*
X2055629Y1479503D1*
X2063907Y1475572D1*
X2070385Y1470385D1*
X2170370Y1370398D1*
X2172386Y1368219D1*
X2177450Y1360583D1*
X2180525Y1351949D1*
X2181437Y1343701D1*
Y1009335D1*
X2259329Y931440D1*
X2378070Y931437D1*
X2686280Y1239648D1*
Y1301122D1*
X2801122D1*
Y1186280D1*
X2782203Y1186277D1*
X2783762Y1184837D1*
X2785895Y1182647D1*
X2787908Y1180346D1*
X2789797Y1177941D1*
X2791554Y1175440D1*
X2793175Y1172848D1*
X2794656Y1170173D1*
X2795992Y1167424D1*
X2797181Y1164608D1*
X2798218Y1161731D1*
X2799100Y1158804D1*
X2799825Y1155835D1*
X2800391Y1152829D1*
X2800797Y1149799D1*
X2801041Y1146752D1*
X2801122Y1143701D1*
X2801041Y1140640D1*
X2800797Y1137593D1*
X2800390Y1134563D1*
X2799824Y1131559D1*
X2799097Y1128589D1*
X2798215Y1125661D1*
X2797177Y1122786D1*
X2795988Y1119970D1*
X2794651Y1117220D1*
X2793171Y1114546D1*
X2791549Y1111954D1*
X2789791Y1109453D1*
X2787903Y1107049D1*
X2785890Y1104748D1*
X2783756Y1102558D1*
X2781510Y1100484D1*
X2779156Y1098533D1*
X2776702Y1096710D1*
X2774155Y1095021D1*
X2771520Y1093469D1*
X2768807Y1092059D1*
X2766024Y1090797D1*
X2763176Y1089682D1*
X2760273Y1088723D1*
X2757324Y1087919D1*
X2754336Y1087273D1*
X2751318Y1086787D1*
X2748278Y1086462D1*
X2745224Y1086299D1*
X2742168Y1086301D1*
X2739114Y1086463D1*
X2736075Y1086789D1*
X2733056Y1087274D1*
X2730068Y1087921D1*
X2727119Y1088726D1*
X2724217Y1089686D1*
X2721370Y1090799D1*
X2718585Y1092063D1*
X2715873Y1093472D1*
X2713239Y1095025D1*
X2710692Y1096715D1*
X2708238Y1098539D1*
X2705885Y1100491D1*
X2703639Y1102564D1*
X2701507Y1104755D1*
X2699493Y1107055D1*
X2697605Y1109461D1*
X2695848Y1111962D1*
X2694227Y1114554D1*
X2692745Y1117228D1*
X2691409Y1119978D1*
X2690220Y1122794D1*
X2689184Y1125671D1*
X2688302Y1128597D1*
X2687576Y1131567D1*
X2687157Y1133789D1*
X2420385Y867017D1*
X2413165Y861373D1*
X2404799Y857634D1*
X2395770Y856022D1*
X2384325Y855965D1*
X2243701D1*
X2234605Y857077D1*
X2226046Y860349D1*
X2218521Y865594D1*
X2210811Y873223D1*
X2178428Y905606D1*
X1744056Y905609D1*
X1734961Y906722D1*
X1726402Y909993D1*
X1718877Y915239D1*
X1710900Y923135D1*
X1573075Y1060959D1*
X1426387Y1060965D1*
X1423819Y1058883D1*
X1415990Y1054028D1*
X1407402Y1050693D1*
X1398346Y1048992D1*
X1389134Y1048984D1*
X1380076Y1050671D1*
X1371483Y1053992D1*
X1363646Y1058836D1*
X1356832Y1065037D1*
X1351274Y1072385D1*
X1347161Y1080629D1*
X1344633Y1089488D1*
X1343776Y1098661D1*
X1344618Y1107836D1*
X1347133Y1116698D1*
X1351232Y1124949D1*
X1356778Y1132306D1*
X1363583Y1138518D1*
X1371412Y1143374D1*
X1380000Y1146709D1*
X1389055Y1148409D1*
X1398268Y1148417D1*
X1407325Y1146731D1*
X1415919Y1143409D1*
X1423756Y1138566D1*
X1426091Y1136440D1*
X1588680Y1136437D1*
X1591647Y1136322D1*
X1600629Y1134503D1*
X1608907Y1130572D1*
X1615385Y1125385D1*
X1759682Y981087D1*
X2092951Y981081D1*
X2108139D1*
X2107634Y982602D1*
X2106022Y991631D1*
X2105965Y993728D1*
Y1328070D1*
X2032526Y1401516D1*
X2026373Y1396480D1*
X2021757Y1393808D1*
X2028867Y1389093D1*
X2035694Y1382865D1*
X2041432Y1375621D1*
X2045934Y1367551D1*
X2049084Y1358864D1*
X2050799Y1349783D1*
X2051122Y1343701D1*
X2050388Y1334554D1*
X2048188Y1325579D1*
X2044575Y1317073D1*
X2039644Y1309257D1*
X2033525Y1302333D1*
X2026373Y1296480D1*
X2021757Y1293808D1*
X2028867Y1289093D1*
X2035694Y1282865D1*
X2041432Y1275621D1*
X2045934Y1267551D1*
X2049084Y1258864D1*
X2050799Y1249783D1*
X2051122Y1243701D1*
X2050388Y1234554D1*
X2048188Y1225579D1*
X2044575Y1217073D1*
X2039644Y1209257D1*
X2033525Y1202333D1*
X2026373Y1196480D1*
X2021757Y1193808D1*
X2028867Y1189093D1*
X2035694Y1182865D1*
X2041432Y1175621D1*
X2045934Y1167551D1*
X2049084Y1158864D1*
X2050799Y1149783D1*
X2051122Y1143701D1*
X2050388Y1134554D1*
X2048188Y1125579D1*
X2044575Y1117073D1*
X2039644Y1109257D1*
X2033525Y1102333D1*
X2026373Y1096480D1*
X2021757Y1093808D1*
X2029072Y1088934D1*
X2035870Y1082675D1*
X2041576Y1075406D1*
X2046042Y1067316D1*
X2049152Y1058614D1*
X2050825Y1049526D1*
X2051122Y1043701D1*
X2050388Y1034554D1*
X2048188Y1025579D1*
X2044575Y1017073D1*
X2039644Y1009257D1*
X2033525Y1002333D1*
X2026373Y996480D1*
X2018375Y991852D1*
X2009739Y988564D1*
X2000686Y986706D1*
X1991453Y986324D1*
X1982278Y987427D1*
X1973399Y989988D1*
X1965046Y993940D1*
X1957436Y999181D1*
X1950764Y1005575D1*
X1945203Y1012957D1*
X1940900Y1021134D1*
X1937963Y1029896D1*
X1936471Y1039016D1*
X1936461Y1048257D1*
X1937933Y1057379D1*
X1940849Y1066148D1*
X1945134Y1074336D1*
X1950677Y1081730D1*
X1957335Y1088139D1*
X1964934Y1093396D1*
X1965513Y1093672D1*
X1965270Y1093812D1*
X1957636Y1099018D1*
X1950936Y1105382D1*
X1945343Y1112739D1*
X1941001Y1120896D1*
X1938026Y1129646D1*
X1936492Y1138759D1*
X1936441Y1147999D1*
X1937871Y1157129D1*
X1940748Y1165911D1*
X1944997Y1174117D1*
X1950507Y1181535D1*
X1957135Y1187975D1*
X1964711Y1193266D1*
X1965531Y1193661D1*
X1965270Y1193812D1*
X1957636Y1199018D1*
X1950936Y1205382D1*
X1945343Y1212739D1*
X1941001Y1220896D1*
X1938026Y1229646D1*
X1936492Y1238759D1*
X1936441Y1247999D1*
X1937871Y1257129D1*
X1940748Y1265911D1*
X1944997Y1274117D1*
X1950507Y1281535D1*
X1957135Y1287975D1*
X1964711Y1293266D1*
X1965531Y1293661D1*
X1965270Y1293812D1*
X1957636Y1299018D1*
X1950936Y1305382D1*
X1945343Y1312739D1*
X1941001Y1320896D1*
X1938026Y1329646D1*
X1936492Y1338759D1*
X1936441Y1347999D1*
X1937871Y1357129D1*
X1940748Y1365911D1*
X1944997Y1374117D1*
X1950507Y1381535D1*
X1957135Y1387975D1*
X1964711Y1393266D1*
X1965531Y1393661D1*
X1965270Y1393812D1*
X1957636Y1399018D1*
X1950936Y1405382D1*
X1945343Y1412739D1*
X1941001Y1420896D1*
X1938026Y1429646D1*
X1936492Y1438759D1*
X1936441Y1447999D1*
X1937871Y1457129D1*
X1940748Y1465911D1*
X1944997Y1474117D1*
X1950507Y1481535D1*
X1957135Y1487975D1*
X1964711Y1493266D1*
X1965531Y1493661D1*
X1965491Y1493709D1*
X1965270Y1493812D1*
X1957636Y1499018D1*
X1950936Y1505382D1*
X1950493Y1505965D1*
X1909337D1*
X1781434Y1378068D1*
Y1301122D1*
X1801121D1*
Y1186280D1*
X1782205Y1186277D1*
X1783764Y1184837D1*
X1785896Y1182647D1*
X1787909Y1180346D1*
X1789798Y1177941D1*
X1791555Y1175440D1*
X1793176Y1172848D1*
X1794657Y1170173D1*
X1795993Y1167424D1*
X1797182Y1164608D1*
X1798219Y1161731D1*
X1799101Y1158804D1*
X1799827Y1155835D1*
X1800392Y1152829D1*
X1800798Y1149799D1*
X1801042Y1146752D1*
X1801123Y1143701D1*
X1801042Y1140640D1*
X1800798Y1137593D1*
X1800391Y1134563D1*
X1799825Y1131559D1*
X1799098Y1128589D1*
X1798217Y1125661D1*
X1797178Y1122786D1*
X1795990Y1119970D1*
X1794652Y1117220D1*
X1793172Y1114546D1*
X1791550Y1111954D1*
X1789793Y1109453D1*
X1787904Y1107049D1*
X1785891Y1104748D1*
X1783757Y1102558D1*
X1781512Y1100484D1*
X1779157Y1098533D1*
X1776703Y1096710D1*
X1774156Y1095021D1*
X1771521Y1093469D1*
X1768808Y1092059D1*
X1766025Y1090797D1*
X1763177Y1089682D1*
X1760274Y1088723D1*
X1757325Y1087919D1*
X1754337Y1087273D1*
X1751319Y1086787D1*
X1748280Y1086462D1*
X1745226Y1086299D1*
X1742169Y1086301D1*
X1739115Y1086463D1*
X1736076Y1086789D1*
X1733058Y1087274D1*
X1730070Y1087921D1*
X1727121Y1088726D1*
X1724218Y1089686D1*
X1721371Y1090799D1*
X1718587Y1092063D1*
X1715874Y1093472D1*
X1713240Y1095025D1*
X1710693Y1096715D1*
X1708239Y1098539D1*
X1705886Y1100491D1*
X1703640Y1102564D1*
X1701508Y1104755D1*
X1699495Y1107055D1*
X1697606Y1109461D1*
X1695849Y1111962D1*
X1694228Y1114554D1*
X1692747Y1117228D1*
X1691411Y1119978D1*
X1690222Y1122794D1*
X1689185Y1125671D1*
X1688303Y1128597D1*
X1687577Y1131567D1*
X1687010Y1134572D1*
X1686605Y1137602D1*
X1686362Y1140650D1*
X1686281Y1143705D1*
X1686362Y1146761D1*
X1686606Y1149808D1*
X1687013Y1152839D1*
X1687579Y1155843D1*
X1688304Y1158812D1*
X1689188Y1161740D1*
X1690226Y1164615D1*
X1691415Y1167432D1*
X1692752Y1170181D1*
X1694232Y1172856D1*
X1695854Y1175448D1*
X1697612Y1177949D1*
X1699500Y1180353D1*
X1701513Y1182654D1*
X1703647Y1184844D1*
X1705202Y1186280D1*
X1686278D1*
Y1247759D1*
X1683067Y1250966D1*
X1426383Y1250965D1*
X1423819Y1248883D1*
X1415990Y1244028D1*
X1407402Y1240693D1*
X1398346Y1238992D1*
X1389134Y1238984D1*
X1380076Y1240671D1*
X1371483Y1243992D1*
X1363646Y1248836D1*
X1356832Y1255037D1*
X1351274Y1262385D1*
X1347161Y1270629D1*
X1344633Y1279488D1*
X1343776Y1288661D1*
X1344618Y1297836D1*
X1347133Y1306698D1*
X1351232Y1314949D1*
X1356778Y1322306D1*
X1363583Y1328518D1*
X1371412Y1333374D1*
X1380000Y1336709D1*
X1389055Y1338409D1*
X1398268Y1338417D1*
X1407325Y1336731D1*
X1415919Y1333409D1*
X1423756Y1328566D1*
X1426091Y1326440D1*
X1698677Y1326437D1*
X1701655Y1326320D1*
X1705963Y1325732D1*
X1511369Y624244D2*
X1517017Y617017D1*
X1566999Y567035D1*
X1568528Y565588D1*
X1576046Y560349D1*
X1584605Y557077D1*
X1593701Y555965D1*
X1973640D1*
X1981890Y556877D1*
X1990522Y559951D1*
X1998165Y565022D1*
X2000403Y567096D1*
X2034864Y601558D1*
X2040764Y606080D1*
X2043724Y605965D1*
X2593701D1*
X2601950Y606877D1*
X2610583Y609951D1*
X2618226Y615022D1*
X2620399Y617033D1*
X2870385Y867017D1*
X2875572Y873495D1*
X2879503Y881773D1*
X2881322Y890764D1*
X2881437Y893756D1*
Y1343701D1*
X2880525Y1351950D1*
X2877450Y1360583D1*
X2872379Y1368226D1*
X2870366Y1370403D1*
X2370385Y1870385D1*
X2363907Y1875572D1*
X2355629Y1879503D1*
X2346638Y1881322D1*
X2343677Y1881437D1*
X2336845Y1881433D1*
X2335870Y1882675D1*
X2329072Y1888934D1*
X2321892Y1893669D1*
X2321757Y1893808D1*
X2326373Y1896480D1*
X2333525Y1902333D1*
X2339644Y1909257D1*
X2344575Y1917073D1*
X2348188Y1925579D1*
X2350388Y1934554D1*
X2351122Y1943701D1*
X2350799Y1949783D1*
X2349084Y1958864D1*
X2345934Y1967551D1*
X2341432Y1975621D1*
X2335694Y1982865D1*
X2328867Y1989093D1*
X2321864Y1993668D1*
X2321757Y1993808D1*
X2326373Y1996480D1*
X2333525Y2002333D1*
X2339644Y2009257D1*
X2344575Y2017073D1*
X2348188Y2025579D1*
X2350388Y2034554D1*
X2351122Y2043701D1*
X2350799Y2049783D1*
X2349084Y2058864D1*
X2345934Y2067551D1*
X2341432Y2075621D1*
X2335694Y2082865D1*
X2328867Y2089093D1*
X2321864Y2093668D1*
X2321757Y2093808D1*
X2326373Y2096480D1*
X2333525Y2102333D1*
X2339644Y2109257D1*
X2344575Y2117073D1*
X2348188Y2125579D1*
X2350388Y2134554D1*
X2351122Y2143701D1*
X2350799Y2149783D1*
X2349084Y2158864D1*
X2345934Y2167551D1*
X2341432Y2175621D1*
X2335694Y2182865D1*
X2328867Y2189093D1*
X2321864Y2193668D1*
X2321757Y2193808D1*
X2326373Y2196480D1*
X2333525Y2202333D1*
X2336734Y2205965D1*
X3138163D1*
X3140266Y2206022D1*
X3149287Y2207634D1*
X3157654Y2211373D1*
X3164873Y2217017D1*
X3415942Y2468092D1*
X3705965Y2178077D1*
X3705967Y1159335D1*
X3367017Y820385D1*
X3361829Y813906D1*
X3357899Y805629D1*
X3356080Y796638D1*
X3355965Y793675D1*
X3355958Y744835D1*
X3352038Y741908D1*
X3345601Y735488D1*
X3343617Y733080D1*
X3339493Y738000D1*
X3332722Y744066D1*
X3325155Y749106D1*
X3316949Y753018D1*
X3308269Y755723D1*
X3299293Y757165D1*
X3290202Y757315D1*
X3281182Y756169D1*
X3272419Y753752D1*
X3264088Y750112D1*
X3256360Y745323D1*
X3249391Y739483D1*
X3243609Y733079D1*
X3241915Y735349D1*
X3235495Y741786D1*
X3228223Y747244D1*
X3220251Y751613D1*
X3211736Y754802D1*
X3202856Y756745D1*
X3193787Y757407D1*
X3184718Y756770D1*
X3175832Y754850D1*
X3167310Y751685D1*
X3159324Y747339D1*
X3152038Y741900D1*
X3145601Y735480D1*
X3143609Y733076D1*
X3141915Y735345D1*
X3135495Y741782D1*
X3128223Y747241D1*
X3120251Y751609D1*
X3111736Y754798D1*
X3102856Y756743D1*
X3093787Y757403D1*
X3084718Y756768D1*
X3075832Y754846D1*
X3067310Y751681D1*
X3059324Y747335D1*
X3052038Y741896D1*
X3045601Y735476D1*
X3043697Y733178D1*
X3041633Y735665D1*
X3039564Y737915D1*
X3037391Y740063D1*
X3035117Y742104D1*
X3032748Y744034D1*
X3030289Y745848D1*
X3027745Y747542D1*
X3025123Y749113D1*
X3022430Y750555D1*
X3019669Y751867D1*
X3016850Y753046D1*
X3013978Y754088D1*
X3011058Y754991D1*
X3008098Y755752D1*
X3005105Y756371D1*
X3002087Y756845D1*
X2999049Y757175D1*
X2995999Y757358D1*
X2992942Y757395D1*
X2989888Y757286D1*
X2986843Y757030D1*
X2983814Y756629D1*
X2980807Y756081D1*
X2977829Y755391D1*
X2974890Y754560D1*
X2971992Y753588D1*
X2969144Y752478D1*
X2966354Y751234D1*
X2963626Y749856D1*
X2960967Y748349D1*
X2958383Y746717D1*
X2955882Y744963D1*
X2953466Y743091D1*
X2951143Y741105D1*
X2948919Y739010D1*
X2946797Y736811D1*
X2944782Y734512D1*
X2942881Y732119D1*
X2941097Y729639D1*
X2939433Y727076D1*
X2937894Y724436D1*
X2936484Y721724D1*
X2935205Y718949D1*
X2934060Y716115D1*
X2933054Y713230D1*
X2932186Y710301D1*
X2931459Y707332D1*
X2930877Y704332D1*
X2930438Y701307D1*
X2930146Y698265D1*
X2929999Y695213D1*
Y692157D1*
X2930144Y689105D1*
X2930437Y686063D1*
X2930875Y683038D1*
X2931457Y680038D1*
X2932182Y677070D1*
X2933050Y674139D1*
X2934056Y671255D1*
X2935201Y668420D1*
X2936479Y665644D1*
X2937888Y662933D1*
X2939427Y660293D1*
X2941089Y657728D1*
X2942874Y655248D1*
X2944776Y652856D1*
X2946789Y650556D1*
X2948909Y648357D1*
X2951135Y646261D1*
X2953457Y644276D1*
X2955871Y642403D1*
X2958374Y640648D1*
X2960957Y639016D1*
X2963615Y637508D1*
X2966344Y636130D1*
X2969134Y634885D1*
X2971982Y633774D1*
X2974878Y632802D1*
X2977819Y631970D1*
X2980795Y631280D1*
X2983802Y630732D1*
X2986832Y630331D1*
X2989877Y630073D1*
X2992930Y629963D1*
X2995987Y630000D1*
X2999037Y630182D1*
X3002075Y630512D1*
X3005094Y630986D1*
X3008087Y631604D1*
X3011046Y632365D1*
X3013966Y633268D1*
X3016839Y634308D1*
X3019659Y635486D1*
X3022420Y636798D1*
X3025113Y638240D1*
X3027735Y639810D1*
X3030280Y641504D1*
X3032739Y643318D1*
X3035108Y645247D1*
X3037383Y647287D1*
X3039556Y649436D1*
X3041625Y651685D1*
X3043793Y654290D1*
X3045487Y652021D1*
X3051907Y645583D1*
X3059177Y640125D1*
X3067151Y635757D1*
X3075665Y632568D1*
X3084546Y630623D1*
X3093613Y629962D1*
X3102682Y630598D1*
X3111570Y632520D1*
X3120092Y635685D1*
X3128077Y640030D1*
X3135362Y645470D1*
X3141801Y651890D1*
X3143793Y654294D1*
X3145487Y652025D1*
X3151907Y645587D1*
X3159177Y640129D1*
X3167151Y635761D1*
X3175665Y632572D1*
X3184546Y630627D1*
X3193613Y629966D1*
X3202682Y630602D1*
X3211570Y632522D1*
X3220092Y635688D1*
X3228077Y640034D1*
X3235362Y645472D1*
X3241801Y651892D1*
X3243785Y654301D1*
X3247908Y649381D1*
X3254680Y643315D1*
X3262245Y638274D1*
X3270453Y634362D1*
X3279133Y631657D1*
X3288109Y630215D1*
X3297199Y630066D1*
X3306218Y631211D1*
X3314983Y633629D1*
X3323314Y637269D1*
X3331042Y642058D1*
X3338009Y647898D1*
X3343793Y654302D1*
X3345487Y652031D1*
X3351907Y645594D1*
X3355975Y642539D1*
X3356021Y641623D1*
X3357634Y632602D1*
X3361371Y624236D1*
X3367017Y617017D1*
X3466999Y517035D1*
X3468528Y515588D1*
X3476046Y510349D1*
X3484605Y507077D1*
X3493701Y505965D1*
X3693675D1*
X3695778Y506022D1*
X3704799Y507634D1*
X3713165Y511373D1*
X3720385Y517017D1*
X4320365Y1116999D1*
X4321814Y1118528D1*
X4327052Y1126046D1*
X4330324Y1134605D1*
X4331437Y1143701D1*
Y1743675D1*
X4331379Y1745778D1*
X4329768Y1754799D1*
X4326029Y1763165D1*
X4320385Y1770385D1*
X4220403Y1870366D1*
X4218874Y1871814D1*
X4211356Y1877052D1*
X4202797Y1880324D1*
X4193701Y1881437D1*
X4043728D1*
X4041623Y1881379D1*
X4032602Y1879768D1*
X4024236Y1876029D1*
X4017017Y1870385D1*
X3981437Y1834804D1*
Y2343701D1*
X3980525Y2351950D1*
X3977450Y2360583D1*
X3972379Y2368226D1*
X3970367Y2370400D1*
X3535558Y2805217D1*
X4355217Y2805222D1*
X4355219Y481707D1*
X432185Y432664D1*
X432190Y1751844D1*
X936280Y1247759D1*
Y1186280D1*
X955965Y1186283D1*
X955971Y1001122D1*
X936280D1*
Y886280D1*
X955965Y886273D1*
X955971Y751119D1*
X936280D1*
Y636277D1*
X956702D1*
X956877Y635453D1*
X959951Y626819D1*
X965022Y619176D1*
X967031Y617003D1*
X1017017Y567017D1*
X1023495Y561829D1*
X1031773Y557899D1*
X1040764Y556080D1*
X1043727Y555965D1*
X1143701D1*
X1151949Y556877D1*
X1160583Y559951D1*
X1168226Y565022D1*
X1170399Y567033D1*
X1409332Y805965D1*
X1528067Y805967D1*
X1576608Y757421D1*
X1479980D1*
Y629980D1*
X1508551D1*
X1511369Y624244D1*
X543701Y2012598D2*
D14*
X614866D1*
X543701D2*
Y2083764D1*
X662598Y2322535D2*
Y2464866D1*
X733764Y2393701D2*
X662598D1*
X1093701Y1901087D2*
Y1786315D1*
Y1843701D2*
X1151087D1*
X1443701Y2336315D2*
Y2451087D1*
Y2393701D2*
X1386315D1*
X1801087Y2143701D2*
X1686315D1*
X1743701D2*
Y2086315D1*
X1093698Y751088D2*
X1093703Y636318D1*
X1093701Y693703D2*
X1151087Y693706D1*
X1093701Y1001087D2*
Y886315D1*
Y943701D2*
X1151087D1*
X1093701Y1301087D2*
Y1186315D1*
Y1243701D2*
X1151087D1*
X1093701Y1601087D2*
Y1486315D1*
Y1543701D2*
X1151087D1*
X1801088Y1143702D2*
X1686316Y1143699D1*
X1743702Y1143701D2*
X1743703Y1086315D1*
X2801087Y1143701D2*
X2686315D1*
X2743701D2*
Y1086315D1*
X1394189Y1743701D2*
X1496362D1*
X1445276Y1692614D2*
Y1794787D1*
X3143701Y2530016D2*
Y2657386D1*
X2993698Y757364D2*
X2993703Y629995D1*
X2930016Y693677D2*
X2993701Y693680D1*
X2243701Y794591D2*
Y692811D1*
X2192811Y743701D2*
X2294591D1*
X4093701Y1743701D2*
X4157386D1*
X856394Y2455118D2*
X975102D1*
X915748Y2395764D2*
Y2514472D1*
X1043701Y2206992D2*
Y2080409D1*
X1936315Y1643701D2*
X2051087D1*
X2236315Y1743701D2*
X2351087D1*
D16*
X543701Y1874803D3*
D17*
Y2012598D3*
D16*
X662598Y2393701D3*
D17*
X524803D3*
D18*
X1093701Y1843701D3*
D19*
X993701D3*
D18*
X1443701Y2393701D3*
D19*
X1543701D3*
D18*
X1743701Y2143701D3*
D19*
Y2243701D3*
D18*
X1093701Y693703D3*
D19*
X993701Y693699D3*
D18*
X1093701Y943701D3*
D19*
X993701D3*
D18*
X1093701Y1243701D3*
D19*
X993701D3*
D18*
X1093701Y1543701D3*
D19*
X993701D3*
D18*
X1743702Y1143701D3*
D19*
X1743700Y1243701D3*
D18*
X2743701Y1143701D3*
D19*
Y1243701D3*
D20*
X1543701Y693701D3*
D21*
X1643701D3*
D23*
X1445276Y1743701D3*
X1642126D3*
D20*
X3043701Y2593701D3*
D21*
X3143701D3*
X3243701D3*
X3343701D3*
D20*
X3593700Y693701D3*
D21*
X3493700Y693698D3*
X3393700Y693694D3*
X3293700Y693690D3*
X3193700Y693687D3*
X3093700Y693683D3*
X2993700Y693679D3*
D24*
X2243701Y743701D3*
D25*
X1943701D3*
D24*
X1743701Y2543695D3*
D25*
X2043701Y2543706D3*
D20*
X4093701Y1743701D3*
D21*
Y1643701D3*
Y1543701D3*
Y1443701D3*
D26*
X915748Y2632283D3*
D27*
Y2455118D3*
X1171654D3*
Y2632283D3*
D28*
X943701Y2143701D3*
D29*
X1043701D3*
X1143701D3*
D19*
X1993701Y2343701D3*
D18*
Y2243701D3*
Y2143701D3*
Y2043701D3*
Y1943701D3*
Y1843701D3*
Y1743701D3*
Y1643701D3*
Y1543701D3*
Y1443701D3*
Y1343701D3*
Y1243701D3*
Y1143701D3*
Y1043701D3*
X2293701D3*
Y1143701D3*
Y1243701D3*
Y1343701D3*
Y1443701D3*
Y1543701D3*
Y1643701D3*
Y1743701D3*
Y1843701D3*
Y1943701D3*
Y2043701D3*
Y2143701D3*
Y2243701D3*
Y2343701D3*
D30*
X1393701Y1098701D3*
Y1288701D3*
M02*
